<svg xmlns="http://www.w3.org/2000/svg" viewBox="0 0 801.77 186.9"><defs><style>.cls-1{fill:#ca0602;}</style></defs><title>Asset 1_svg</title><g id="Layer_2" data-name="Layer 2"><g id="Capa_1" data-name="Capa 1"><polygon class="cls-1" points="149.52 56.07 112.14 18.69 74.76 56.07 37.38 93.45 0 130.83 37.38 168.21 74.76 130.83 112.14 93.45 149.52 130.83 186.9 168.21 224.28 130.83 186.9 93.45 149.52 56.07"/><polygon class="cls-1" points="500.74 56.07 463.36 93.45 425.98 56.07 388.6 18.69 351.22 56.07 313.84 93.45 276.46 130.83 313.84 168.21 351.22 130.83 388.6 93.45 425.98 130.83 463.36 168.21 500.74 130.83 538.12 93.45 575.49 56.07 538.12 18.69 500.74 56.07"/><polygon class="cls-1" points="764.39 74.76 727.01 37.38 689.63 0 652.25 37.38 689.63 74.76 652.25 112.14 614.87 149.52 652.25 186.9 689.63 149.52 727.01 112.14 764.39 149.52 801.77 112.14 764.39 74.76"/></g></g></svg>