<?xml version="1.0" encoding="utf-8"?>
<!-- Generator: Adobe Illustrator 21.0.0, SVG Export Plug-In . SVG Version: 6.00 Build 0)  -->
<svg version="1.1" id="Capa_1" xmlns="http://www.w3.org/2000/svg" xmlns:xlink="http://www.w3.org/1999/xlink" x="0px" y="0px"
	 viewBox="0 0 841.9 595.3" style="enable-background:new 0 0 841.9 595.3;" xml:space="preserve">
<style type="text/css">
	.st0{fill:#0657A3;}
</style>
<g id="XMLID_43_">
	<polyline id="XMLID_768_" class="st0" points="592.6,352.2 592.6,352.2 592.6,352.2 	"/>
	<line id="XMLID_767_" class="st0" x1="614.8" y1="352.2" x2="614.8" y2="352.2"/>
	<polyline id="XMLID_766_" class="st0" points="497.8,352.2 497.8,352.2 497.8,352.2 	"/>
	<line id="XMLID_765_" class="st0" x1="520" y1="352.2" x2="520" y2="352.2"/>
	<polyline id="XMLID_764_" class="st0" points="403.1,352.2 403.1,352.2 403.1,352.2 	"/>
	<line id="XMLID_763_" class="st0" x1="425.3" y1="352.2" x2="425.3" y2="352.2"/>
	<path id="XMLID_761_" class="st0" d="M633.7,352.2H671c0.8,0,1.4-0.6,1.4-1.4v-5.4c0-0.8-0.6-1.4-1.4-1.4h-37.3
		c-0.8,0-1.4,0.6-1.4,1.4v5.4C632.3,351.6,632.9,352.2,633.7,352.2z"/>
	<path id="XMLID_40_" class="st0" d="M170.9,352.2h37.3c0.8,0,1.4-0.6,1.4-1.4v-4.9c0-0.8-0.6-1.4-1.4-1.4h-37.3
		c-0.8,0-1.4,0.6-1.4,1.4v4.9C169.5,351.6,170.1,352.2,170.9,352.2z"/>
	<path id="XMLID_760_" class="st0" d="M623,350.7c0,0.8-0.6,1.5-1.4,1.5h-5.5c-0.8,0-1.4-0.6-1.4-1.4v-17.9c0-6.5-5.4-11-11-11
		c-5.7,0-11.1,4.5-11.1,11v17.9c0,0.8-0.6,1.4-1.4,1.4h-21.9c-0.8,0-1.4-0.6-1.4-1.4v-37.9c0-6.3-5-10.6-11.2-10.6
		c-6.1,0-10.9,4.2-10.9,10.6v37.9c0,0.8-0.6,1.4-1.4,1.4h-23c-0.8,0-1.4-0.6-1.4-1.4v-17.9c0-6.5-5.4-11-11-11
		c-5.7,0-11.1,4.5-11.1,11v17.9c0,0.8-0.6,1.4-1.4,1.4h-29.3c-0.7,0-1.4-0.6-1.4-1.4v-6.5c0-0.5,0.3-1,0.8-1.3
		c3.8-1.7,6.5-5.6,6.5-10l0.1-20.2c0-6.4-5.7-10.6-11-10.6c-5.6,0-10.9,4.2-10.9,10.6v37.9c0,0.8-0.6,1.4-1.4,1.4h-23
		c-0.8,0-1.4-0.6-1.4-1.4v-17.9c0-6.5-5.4-11-11-11c-5.7,0-11.1,4.5-11.1,11v17.9c0,0.8-0.6,1.4-1.4,1.4h-22c-0.8,0-1.4-0.6-1.4-1.4
		l-0.1-46.1c0-0.8-0.6-1.4-1.4-1.4h-19.3c-0.8,0-1.4,0.6-1.4,1.4l0.1,46.1c0,0.8-0.7,1.4-1.4,1.4h-5.4c-0.8,0-1.4-0.6-1.4-1.4v-76.5
		c0-0.8,0.6-1.4,1.4-1.4h5.5c0.8,0,1.4,0.6,1.4,1.4v18.3c0,0.8,0.6,1.4,1.4,1.4h19.3c0.8,0,1.4-0.6,1.4-1.4v-18.3
		c0-0.8,0.6-1.4,1.4-1.4h5.5c0.8,0,1.4,0.6,1.4,1.4v68.3c0,0.8,0.6,1.4,1.4,1.4h5.5c0.8,0,1.4-0.6,1.4-1.4v-9.6
		c0-11,9.1-19.3,19.4-19.3c4.6,0,8,1.5,10.2,2.9c0.4,0.2,0.8,0,0.8-0.5v-2.9c0,0,0.1-0.1,0.1-0.1c0-6.3-3.4-10.5-9.5-10.5
		c-2.1,0-3.9,0.5-5.3,1.4c-0.5,0.4-1.3,0.3-1.8-0.2l-4-4c-0.6-0.6-0.5-1.6,0.2-2.1c3.3-2.5,7-3.6,10.9-3.6c10.7,0,17.8,8,17.8,19
		v29.6c0,0.8,0.6,1.4,1.4,1.4h6.5c0.8,0,1.4-0.6,1.4-1.4v-68.5c0-0.8,0.6-1.4,1.4-1.4h5.5c0.8,0,1.4,0.6,1.4,1.4v22.2
		c0,0.4,0.5,0.7,0.8,0.5c2-1.2,5.5-2.8,10-2.8c10.5,0,19.3,8.4,19.3,18.9v22.2c-0.4,3.3-1.5,6.3-3.3,8.9h10.2l-0.1,0
		c0.8,0,1.4-0.6,1.4-1.4v-9.6c0-11,9.1-19.3,19.4-19.3c4.6,0,8,1.5,10.2,2.9c0.4,0.2,0.8,0,0.8-0.5v-2.9c0,0,0-0.1,0-0.1
		c0-6.3-3.4-10.5-9.5-10.5c-2.1,0-3.9,0.5-5.3,1.4c-0.5,0.4-1.3,0.3-1.8-0.2l-4-4c-0.6-0.6-0.5-1.6,0.2-2.1c3.3-2.5,7-3.6,11-3.6
		c10.7,0,17.8,8,17.8,19v29.5c0,0.8,0.6,1.4,1.4,1.4h6.5c0.8,0,1.4-0.6,1.4-1.4v-29.7c0-10.4,7.9-18.9,19.1-18.9
		c10.7,0,19.5,8.1,19.5,18.9v29.7c0,0.8,0.6,1.4,1.4,1.4h5.5c0.8,0,1.4-0.6,1.4-1.4v-9.6c0-11,9.2-19.3,19.4-19.3
		c4.6,0,8,1.5,10.2,2.9c0.4,0.2,0.9,0,0.9-0.5v-2.9c0,0,0-0.1,0-0.1c0-6.3-3.4-10.5-9.5-10.5c-2.1,0-3.9,0.5-5.3,1.4
		c-0.5,0.4-1.2,0.3-1.7-0.2l-4.1-4c-0.6-0.6-0.6-1.6,0-2.1c3.3-2.5,7-3.6,11-3.6c10.7,0,17.9,8,17.9,19"/>
	<line id="XMLID_758_" class="st0" x1="545.8" y1="352.2" x2="545.8" y2="352.2"/>
	<line id="XMLID_751_" class="st0" x1="448.9" y1="331.1" x2="448.9" y2="331.1"/>
	<g id="XMLID_41_">
		<g id="XMLID_61_">
			<path id="XMLID_44_" class="st0" d="M330.4,309.5c0-9.2-9.9-16.1-19-16.1c-9.6,0-18.7,7.2-18.7,16.1l0,34.5
				c0,0.6-0.5,1.2-1.2,1.2h-6c-0.7,0-1.2-0.5-1.2-1.2l0-33.8c0-9.2-9.9-16.1-19-16.1c-9.6,0-18.7,7.2-18.7,16.1l0,33.9
				c0,0.6-0.5,1.2-1.2,1.2h-8.2c-0.5,0-0.7-0.5-0.5-0.9c1.4-2.4,2.1-5.1,2.1-7.7V324c0-8-6.5-16-16.6-16c-3.9,0-6.8,1.6-8.6,2.7
				c-0.3,0.2-0.7,0-0.7-0.4v-8.6c0-0.4,0.4-0.8,0.8-0.8h18.9c0.6,0,1.1-0.5,1.1-1.1v-4.9c0-0.6-0.5-1.1-1.1-1.1h-25.7
				c-0.6,0-1.1,0.5-1.1,1.1v22.7c0,0.6,0.5,1.1,1.1,1.1h5.4c0.8,0,0.9-0.1,1.5-0.7c1.5-1.5,3.8-3.5,8.4-3.3c5.3,0.2,9.4,4.4,9.4,9.9
				l0,11.7c0,3.2-2,8.1-7.9,8.8c0,0,0,0-0.1,0c-0.6,0.1-1,0.5-1,1.1l0,4.1c0,0.6,0.5,1.1,1.1,1.1h27.6c1.1,0,2.1-0.9,2.1-2.1l0-38.1
				c0-5.4,5.8-9.8,11.7-9.8c5.8,0,11.9,4.4,11.9,9.8l0,38.1c0,1.2,0.9,2.1,2.1,2.1h18.3c1.1,0,2.1-0.9,2.1-2.1l0-38.7
				c0-5.4,5.8-9.8,11.7-9.8c5.8,0,11.9,4.4,11.9,9.8l0,39.7c0,0.6,0.5,1.1,1.1,1.1l4.8,0c0.6,0,1.1-0.5,1.1-1.1L330.4,309.5z"/>
			<path id="XMLID_58_" class="st0" d="M329.4,352.2l-4.8,0c-1,0-1.9-0.8-1.9-1.9l0-39.7c0-5.1-6-9.1-11.2-9.1
				c-5.7,0-10.9,4.3-10.9,9.1l0,38.7c0,1.6-1.2,2.8-2.8,2.8h-18.4c-1.6,0-2.8-1.3-2.8-2.8l0-38.1c0-5.1-6-9.1-11.1-9.1
				c-5.7,0-10.9,4.3-10.9,9.1l0,38.1c0,1.6-1.3,2.8-2.8,2.8h-27.6c-1,0-1.9-0.8-1.9-1.8l0-4.1c0-1,0.7-1.8,1.7-1.9
				c5.7-0.7,7.2-5.6,7.2-8.1l0-11.7c0-5-3.7-8.9-8.7-9.1c-4.1-0.2-6.3,1.4-7.9,3.1c-0.7,0.8-1,0.9-2,0.9h-5.4c-1,0-1.9-0.8-1.9-1.9
				v-22.7c0-1,0.8-1.9,1.9-1.9h25.7c1,0,1.9,0.8,1.9,1.9v4.9c0,1-0.8,1.9-1.9,1.9h-18.9l-0.1,8.2c2.1-1.2,5-2.5,8.5-2.5
				c10.7,0,17.3,8.7,17.3,16.7v12.6c-0.1,2.7-0.8,5.5-2.1,7.8h7.9c0.2,0,0.4-0.2,0.4-0.4l0-33.9c0-9,9.1-16.8,19.4-16.8
				c9.3,0,19.7,7.2,19.7,16.8l0,33.8c0,0.2,0.2,0.4,0.4,0.4h6c0.2,0,0.4-0.2,0.4-0.4l0-34.5c0-9,9.1-16.8,19.4-16.8
				c9.3,0,19.8,7.2,19.8,16.8l0,40.8c0,0.5-0.2,1-0.5,1.3C330.3,352,329.9,352.2,329.4,352.2z M265.5,300.7c6,0,12.6,4.5,12.6,10.6
				l0,38.1c0,0.7,0.6,1.3,1.3,1.3h18.3c0.7,0,1.3-0.6,1.3-1.3l0-38.7c0-5.5,5.9-10.6,12.4-10.6c6,0,12.7,4.5,12.7,10.6l0,39.7
				c0,0.2,0.2,0.4,0.4,0.4l4.8,0c0.1,0,0.2-0.1,0.3-0.1c0,0,0.1-0.1,0.1-0.3l0-40.8c0-8.8-9.6-15.3-18.3-15.3
				c-9.5,0-17.9,7.2-17.9,15.3l0,34.5c0,1.1-0.9,1.9-1.9,1.9h-6c-1.1,0-1.9-0.8-1.9-1.9l0-33.9c0-8.8-9.6-15.3-18.2-15.3
				c-9.5,0-17.9,7.2-17.9,15.3l0,33.9c0,1.1-0.9,1.9-1.9,1.9h-8.2c-0.5,0-0.9-0.2-1.1-0.7c-0.2-0.4-0.2-0.9,0-1.3
				c1.3-2.2,2-4.8,2-7.4V324c0-7.3-6-15.2-15.8-15.2c-3.9,0-6.9,1.8-8.2,2.6c-0.4,0.2-0.8,0.2-1.2,0c-0.4-0.2-0.6-0.6-0.6-1.1v-8.6
				c0-0.9,0.7-1.6,1.6-1.6h18.9c0.2,0,0.4-0.2,0.4-0.4v-4.9c0-0.2-0.2-0.4-0.4-0.4h-25.7c-0.2,0-0.4,0.2-0.4,0.4v22.7
				c0,0.2,0.2,0.4,0.4,0.4h5.4c0.5,0,0.5,0,1-0.5c1.7-1.7,4.2-3.7,9-3.5c5.8,0.2,10.1,4.8,10.1,10.6l0,11.7c0,4.1-2.7,8.9-8.5,9.6
				c-0.3,0-0.4,0.2-0.4,0.4l0,4.1c0,0.2,0.2,0.4,0.4,0.4h27.6c0.7,0,1.3-0.6,1.3-1.3l0-38.1C253.1,305.8,259,300.7,265.5,300.7z"/>
		</g>
		<g id="XMLID_57_">
			<path id="XMLID_70_" class="st0" d="M281.3,291.2l-0.6,1.2c-0.2,0.4-0.6,0.5-0.9,0.3c-4-1.8-9-2.9-14.4-2.9
				c-5.4,0-10.4,1.1-14.4,2.9c-0.4,0.2-0.8,0-0.9-0.4l-0.6-1.2c-0.2-0.4,0-0.8,0.4-1c4.5-1.8,9.8-2.8,15.6-2.8
				c5.7,0,11.1,1,15.5,2.8C281.4,290.4,281.5,290.8,281.3,291.2z"/>
			<path id="XMLID_54_" class="st0" d="M281,290.2c-4.5-1.8-9.8-2.8-15.5-2.8c-5.8,0-11.1,1-15.6,2.8c-0.4,0.1-0.5,0.6-0.4,1
				l0.6,1.2c0.2,0.4,0.6,0.5,0.9,0.4c4-1.8,9-2.9,14.4-2.9c5.4,0,10.4,1.1,14.4,2.9c0.4,0.2,0.8,0,0.9-0.3l0.6-1.2
				C281.5,290.8,281.4,290.4,281,290.2z M280.1,292.1c-4.3-1.9-9.4-2.9-14.7-2.9c-5.3,0-10.4,1-14.7,3l-0.6-1.2
				c4.5-1.8,9.8-2.8,15.3-2.8c5.5,0,10.7,1,15.2,2.7L280.1,292.1z"/>
		</g>
		<g id="XMLID_53_">
			<path id="XMLID_67_" class="st0" d="M282.5,287.2l-0.5,1.1c-0.1,0.3-0.5,0.5-0.9,0.4c-4.6-1.7-10-2.6-15.7-2.6
				s-11.1,0.9-15.7,2.6c-0.4,0.1-0.7,0-0.9-0.4l-0.5-1.1c-0.2-0.4,0-0.8,0.4-1c5-1.6,10.7-2.6,16.7-2.6s11.7,0.9,16.7,2.6
				C282.5,286.3,282.7,286.8,282.5,287.2z"/>
			<path id="XMLID_50_" class="st0" d="M282.1,286.2c-5-1.6-10.7-2.6-16.7-2.6s-11.7,0.9-16.7,2.6c-0.4,0.1-0.6,0.6-0.4,1l0.5,1.1
				c0.2,0.3,0.5,0.5,0.9,0.4c4.6-1.7,10-2.6,15.7-2.6s11.1,0.9,15.7,2.6c0.3,0.1,0.7,0,0.9-0.4l0.5-1.1
				C282.7,286.8,282.5,286.3,282.1,286.2z M281.4,287.9c-4.8-1.7-10.4-2.6-16-2.6c-5.6,0-11.2,0.9-15.9,2.7l-0.5-1.1
				c5-1.7,10.7-2.5,16.5-2.5c5.7,0,11.4,0.9,16.4,2.5L281.4,287.9z"/>
		</g>
		<g id="XMLID_49_">
			<path id="XMLID_64_" class="st0" d="M287.6,277.4c-0.1,0.2-0.5,1.1-1,2.3c-0.7,1.6-1.7,3.7-2.1,4.7c-0.2,0.3-0.5,0.5-0.9,0.4
				c-2-0.7-8.9-2.9-18.1-2.9c-9.7,0-16.2,2.1-18.1,2.9c-0.3,0.1-0.7,0-0.9-0.4c-0.5-1-1.4-3.1-2.1-4.7c-0.5-1.1-0.9-2.1-1-2.3
				c-0.2-0.5-0.1-1.2,0.8-1.5l6.6-2.1c1-0.3,1.5,0.3,1.7,0.8l0.8,3.1c2.1-0.4,4.3-0.8,6.5-0.9c0,0,0.1,0,0.1,0h0c0,0,0,0,0,0
				l-0.5-3.4c-0.1-0.7,0.1-1.4,1-1.4c0,0,3.1-0.6,5.1-0.6s5.1,0.6,5.1,0.6c0.9,0,1.1,0.7,1,1.4l-0.6,3.4c2.3,0.2,4.5,0.6,6.7,1
				l0.7-3.1c0.2-0.5,0.7-1.1,1.7-0.8l6.6,2.1C287.7,276.2,287.8,276.9,287.6,277.4z"/>
			<path id="XMLID_46_" class="st0" d="M286.7,275.9l-6.6-2.1c-1-0.3-1.5,0.3-1.7,0.8l-0.7,3.1c-2.2-0.4-4.4-0.8-6.7-1l0.6-3.4
				c0.1-0.7-0.1-1.4-1-1.4c0,0-3.1-0.6-5.1-0.6s-5.1,0.6-5.1,0.6c-0.9,0-1.1,0.7-1,1.4l0.5,3.4c0,0,0,0,0,0h0c0,0,0,0-0.1,0
				c-2.2,0.1-4.4,0.6-6.5,0.9l-0.8-3.1c-0.2-0.5-0.7-1.1-1.7-0.8l-6.6,2.1c-0.9,0.3-1.1,1-0.8,1.5c0.1,0.2,0.5,1.1,1,2.3
				c0.7,1.6,1.7,3.7,2.1,4.7c0.1,0.3,0.5,0.5,0.9,0.4c1.9-0.7,8.5-2.9,18.1-2.9c9.2,0,16.1,2.2,18.1,2.9c0.3,0.1,0.7,0,0.9-0.4
				c0.5-1,1.4-3.1,2.1-4.7c0.5-1.1,0.9-2.1,1-2.3C287.8,276.9,287.7,276.2,286.7,275.9z M286.9,277.1L286.9,277.1
				c-0.1,0.2-0.5,1.2-1,2.3c-0.7,1.6-1.7,3.7-2,4.7c-2-0.7-9-2.9-18.4-2.9c-9.8,0-16.6,2.2-18.3,2.9c-0.5-1-1.4-3.1-2.1-4.7
				c-0.5-1.1-0.9-2.1-1-2.3c0-0.1-0.1-0.2,0-0.3c0.1-0.1,0.2-0.2,0.4-0.3l6.6-2.1c0.1,0,0.2,0,0.3,0c0.2,0,0.4,0.1,0.5,0.3l0.9,3.8
				l1.6-0.3c1.8-0.3,3.6-0.6,5.5-0.8h0.1l0.9,0l-0.7-4.2c0-0.3,0-0.5,0-0.5c0,0,0.1-0.1,0.4-0.1c0,0,3-0.5,4.9-0.5
				c1.9,0,4.9,0.5,5,0.5c0.2,0,0.3,0,0.3,0.1c0,0,0.1,0.2,0,0.5l-0.7,4.2l0.8,0.1c1.9,0.1,3.8,0.5,5.6,0.8l1.8,0.3l0.8-3.7
				c0.1-0.4,0.4-0.5,0.8-0.4l6.6,2.1c0.2,0.1,0.4,0.2,0.4,0.3C286.9,277,286.9,277.1,286.9,277.1z"/>
		</g>
	</g>
</g>
<path id="XMLID_47_" class="st0" d="M276.6,374.2h3.8c2.6,0,4.3,1.3,4.3,3.6c0,2.4-1.9,3.7-4.4,3.7h-2.1v5h-1.6V374.2z M278.3,380.2
	h2c1.7,0,2.9-0.8,2.9-2.3c0-1.6-1.2-2.2-2.9-2.2h-2V380.2z"/>
<path id="XMLID_52_" class="st0" d="M296.6,386.6h-1.7l5.3-12.3h1.5l5.3,12.3h-1.8l-1.3-3.1h-6L296.6,386.6z M298.5,382.1h4.8
	l-2.4-5.9L298.5,382.1z M301.8,372.8h-1.4l2.3-3.3h2.1L301.8,372.8z"/>
<path id="XMLID_75_" class="st0" d="M329.9,376.7c-0.7-0.8-1.9-1.3-3.4-1.3c-2.9,0-4.8,2.2-4.8,5c0,2.8,1.8,5,4.8,5
	c1.2,0,2.3-0.2,3-0.7v-3.5h-2.8v-1.4h4.4v5.9c-1.3,0.7-2.8,1.1-4.6,1.1c-3.8,0-6.5-2.7-6.5-6.5c0-3.8,2.8-6.4,6.5-6.4
	c2,0,3.5,0.6,4.6,1.6L329.9,376.7z"/>
<path id="XMLID_77_" class="st0" d="M348.3,386.6h-1.6v-12.3h1.6V386.6z"/>
<path id="XMLID_79_" class="st0" d="M372.5,384.2L372.5,384.2l0-10h1.6v12.3h-2l-6.4-10.2h0v10.2h-1.6v-12.3h2.1L372.5,384.2z"/>
<path id="XMLID_81_" class="st0" d="M389.3,386.6h-1.7l5.3-12.3h1.5l5.3,12.3h-1.8l-1.3-3.1h-6L389.3,386.6z M391.2,382.1h4.8
	l-2.4-5.9L391.2,382.1z"/>
<path id="XMLID_84_" class="st0" d="M438.7,386.8c-3.7,0-6.5-2.7-6.5-6.5c0-3.8,2.8-6.4,6.5-6.4c3.7,0,6.5,2.6,6.5,6.4
	C445.3,384.1,442.5,386.8,438.7,386.8z M438.7,375.4c-2.9,0-4.7,2.3-4.7,5c0,2.7,1.8,5,4.7,5c2.9,0,4.8-2.3,4.8-5
	C443.5,377.7,441.7,375.4,438.7,375.4z"/>
<path id="XMLID_87_" class="st0" d="M459.2,386.6h-1.6v-12.3h7.6v1.4h-6v3.9h5.6v1.4h-5.6V386.6z"/>
<path id="XMLID_89_" class="st0" d="M480.7,386.6h-1.6v-12.3h1.6V386.6z"/>
<path id="XMLID_91_" class="st0" d="M505.9,384.6c-0.9,1.3-2.5,2.3-4.7,2.3c-3.7,0-6.5-2.7-6.5-6.5c0-3.8,2.8-6.4,6.5-6.4
	c1.7,0,3.5,0.7,4.4,1.9l-1.3,1c-0.6-0.8-1.8-1.5-3.1-1.5c-2.9,0-4.8,2.2-4.8,5c0,2.8,1.8,5,4.7,5c1.4,0,2.6-0.6,3.4-1.6L505.9,384.6
	z"/>
<path id="XMLID_93_" class="st0" d="M521.7,386.6h-1.6v-12.3h1.6V386.6z"/>
<path id="XMLID_95_" class="st0" d="M537.3,386.6h-1.7l5.3-12.3h1.5l5.3,12.3h-1.8l-1.3-3.1h-6L537.3,386.6z M539.1,382.1h4.8
	l-2.4-5.9L539.1,382.1z"/>
<path id="XMLID_98_" class="st0" d="M563.1,385.1h5.6v1.5h-7.2v-12.3h1.6V385.1z"/>
</svg>
