<?xml version="1.0" encoding="utf-8"?>
<!-- Generator: Adobe Illustrator 21.0.0, SVG Export Plug-In . SVG Version: 6.00 Build 0)  -->
<svg version="1.1" id="Capa_1" xmlns="http://www.w3.org/2000/svg" xmlns:xlink="http://www.w3.org/1999/xlink" x="0px" y="0px"
	 viewBox="0 0 502.9 115.6" style="enable-background:new 0 0 502.9 115.6;" xml:space="preserve">
<style type="text/css">
	.st0{fill:#0657A3;}
	.st1{fill:none;}
</style>
<g id="XMLID_43_">
	<polyline id="XMLID_768_" class="st0" points="423.1,80.9 423.1,80.9 423.1,80.9 	"/>
	<line id="XMLID_767_" class="st1" x1="445.3" y1="80.9" x2="445.3" y2="80.9"/>
	<polyline id="XMLID_766_" class="st0" points="328.3,80.9 328.3,80.9 328.3,80.9 	"/>
	<line id="XMLID_765_" class="st1" x1="350.5" y1="80.9" x2="350.5" y2="80.9"/>
	<polyline id="XMLID_764_" class="st0" points="233.6,80.9 233.6,80.9 233.6,80.9 	"/>
	<line id="XMLID_763_" class="st1" x1="255.8" y1="80.9" x2="255.8" y2="80.9"/>
	<path id="XMLID_761_" class="st0" d="M464.2,80.9h37.3c0.8,0,1.4-0.6,1.4-1.4v-5.4c0-0.8-0.6-1.4-1.4-1.4h-37.3
		c-0.8,0-1.4,0.6-1.4,1.4v5.4C462.8,80.3,463.4,80.9,464.2,80.9z"/>
	<path id="XMLID_40_" class="st0" d="M1.4,80.9h37.3c0.8,0,1.4-0.6,1.4-1.4v-4.9c0-0.8-0.6-1.4-1.4-1.4H1.4c-0.8,0-1.4,0.6-1.4,1.4
		v4.9C0,80.3,0.6,80.9,1.4,80.9z"/>
	<path id="XMLID_760_" class="st0" d="M453.5,79.4c0,0.8-0.6,1.5-1.4,1.5h-5.5c-0.8,0-1.4-0.6-1.4-1.4V61.6c0-6.5-5.4-11-11-11
		c-5.7,0-11.1,4.5-11.1,11v17.9c0,0.8-0.6,1.4-1.4,1.4h-21.9c-0.8,0-1.4-0.6-1.4-1.4V41.6c0-6.3-5-10.6-11.2-10.6
		c-6.1,0-10.9,4.2-10.9,10.6v37.9c0,0.8-0.6,1.4-1.4,1.4h-23c-0.8,0-1.4-0.6-1.4-1.4V61.6c0-6.5-5.4-11-11-11
		c-5.7,0-11.1,4.5-11.1,11v17.9c0,0.8-0.6,1.4-1.4,1.4h-29.3c-0.7,0-1.4-0.6-1.4-1.4V73c0-0.5,0.3-1,0.8-1.3c3.8-1.7,6.5-5.6,6.5-10
		l0.1-20.2c0-6.4-5.7-10.6-11-10.6c-5.6,0-10.9,4.2-10.9,10.6v37.9c0,0.8-0.6,1.4-1.4,1.4h-23c-0.8,0-1.4-0.6-1.4-1.4V61.5
		c0-6.5-5.4-11-11-11c-5.7,0-11.1,4.5-11.1,11v17.9c0,0.8-0.6,1.4-1.4,1.4h-22c-0.8,0-1.4-0.6-1.4-1.4L209,33.3
		c0-0.8-0.6-1.4-1.4-1.4h-19.3c-0.8,0-1.4,0.6-1.4,1.4l0.1,46.1c0,0.8-0.7,1.4-1.4,1.4h-5.4c-0.8,0-1.4-0.6-1.4-1.4V2.9
		c0-0.8,0.6-1.4,1.4-1.4h5.5c0.8,0,1.4,0.6,1.4,1.4v18.3c0,0.8,0.6,1.4,1.4,1.4h19.3c0.8,0,1.4-0.6,1.4-1.4V2.9
		c0-0.8,0.6-1.4,1.4-1.4h5.5c0.8,0,1.4,0.6,1.4,1.4v68.3c0,0.8,0.6,1.4,1.4,1.4h5.5c0.8,0,1.4-0.6,1.4-1.4v-9.6
		c0-11,9.1-19.3,19.4-19.3c4.6,0,8,1.5,10.2,2.9c0.4,0.2,0.8,0,0.8-0.5v-2.9l0.1-0.1c0-6.3-3.4-10.5-9.5-10.5
		c-2.1,0-3.9,0.5-5.3,1.4c-0.5,0.4-1.3,0.3-1.8-0.2l-4-4c-0.6-0.6-0.5-1.6,0.2-2.1c3.3-2.5,7-3.6,10.9-3.6c10.7,0,17.8,8,17.8,19
		v29.6c0,0.8,0.6,1.4,1.4,1.4h6.5c0.8,0,1.4-0.6,1.4-1.4V2.8c0-0.8,0.6-1.4,1.4-1.4h5.5c0.8,0,1.4,0.6,1.4,1.4V25
		c0,0.4,0.5,0.7,0.8,0.5c2-1.2,5.5-2.8,10-2.8c10.5,0,19.3,8.4,19.3,18.9v22.2c-0.4,3.3-1.5,6.3-3.3,8.9h10.2h-0.1
		c0.8,0,1.4-0.6,1.4-1.4v-9.6c0-11,9.1-19.3,19.4-19.3c4.6,0,8,1.5,10.2,2.9c0.4,0.2,0.8,0,0.8-0.5v-2.9v-0.1
		c0-6.3-3.4-10.5-9.5-10.5c-2.1,0-3.9,0.5-5.3,1.4c-0.5,0.4-1.3,0.3-1.8-0.2l-4-4c-0.6-0.6-0.5-1.6,0.2-2.1c3.3-2.5,7-3.6,11-3.6
		c10.7,0,17.8,8,17.8,19v29.5c0,0.8,0.6,1.4,1.4,1.4h6.5c0.8,0,1.4-0.6,1.4-1.4V41.6c0-10.4,7.9-18.9,19.1-18.9
		c10.7,0,19.5,8.1,19.5,18.9v29.7c0,0.8,0.6,1.4,1.4,1.4h5.5c0.8,0,1.4-0.6,1.4-1.4v-9.6c0-11,9.2-19.3,19.4-19.3
		c4.6,0,8,1.5,10.2,2.9c0.4,0.2,0.9,0,0.9-0.5v-2.9v-0.1c0-6.3-3.4-10.5-9.5-10.5c-2.1,0-3.9,0.5-5.3,1.4c-0.5,0.4-1.2,0.3-1.7-0.2
		l-4.1-4c-0.6-0.6-0.6-1.6,0-2.1c3.3-2.5,7-3.6,11-3.6c10.7,0,17.9,8,17.9,19"/>
	<line id="XMLID_758_" class="st1" x1="376.3" y1="80.9" x2="376.3" y2="80.9"/>
	<line id="XMLID_751_" class="st1" x1="279.4" y1="59.8" x2="279.4" y2="59.8"/>
	<g id="XMLID_41_">
		<g id="XMLID_61_">
			<path id="XMLID_44_" class="st0" d="M160.9,38.2c0-9.2-9.9-16.1-19-16.1c-9.6,0-18.7,7.2-18.7,16.1v34.5c0,0.6-0.5,1.2-1.2,1.2
				h-6c-0.7,0-1.2-0.5-1.2-1.2V38.9c0-9.2-9.9-16.1-19-16.1c-9.6,0-18.7,7.2-18.7,16.1v33.9c0,0.6-0.5,1.2-1.2,1.2h-8.2
				c-0.5,0-0.7-0.5-0.5-0.9c1.4-2.4,2.1-5.1,2.1-7.7V52.7c0-8-6.5-16-16.6-16c-3.9,0-6.8,1.6-8.6,2.7c-0.3,0.2-0.7,0-0.7-0.4v-8.6
				c0-0.4,0.4-0.8,0.8-0.8h18.9c0.6,0,1.1-0.5,1.1-1.1v-4.9c0-0.6-0.5-1.1-1.1-1.1H37.4c-0.6,0-1.1,0.5-1.1,1.1v22.7
				c0,0.6,0.5,1.1,1.1,1.1h5.4c0.8,0,0.9-0.1,1.5-0.7c1.5-1.5,3.8-3.5,8.4-3.3c5.3,0.2,9.4,4.4,9.4,9.9V65c0,3.2-2,8.1-7.9,8.8
				c0,0,0,0-0.1,0c-0.6,0.1-1,0.5-1,1.1V79c0,0.6,0.5,1.1,1.1,1.1h27.6c1.1,0,2.1-0.9,2.1-2.1V39.9c0-5.4,5.8-9.8,11.7-9.8
				c5.8,0,11.9,4.4,11.9,9.8V78c0,1.2,0.9,2.1,2.1,2.1h18.3c1.1,0,2.1-0.9,2.1-2.1V39.3c0-5.4,5.8-9.8,11.7-9.8
				c5.8,0,11.9,4.4,11.9,9.8V79c0,0.6,0.5,1.1,1.1,1.1h4.8c0.6,0,1.1-0.5,1.1-1.1L160.9,38.2z"/>
			<path id="XMLID_58_" class="st0" d="M159.9,80.9h-4.8c-1,0-1.9-0.8-1.9-1.9V39.3c0-5.1-6-9.1-11.2-9.1c-5.7,0-10.9,4.3-10.9,9.1
				V78c0,1.6-1.2,2.8-2.8,2.8h-18.4c-1.6,0-2.8-1.3-2.8-2.8V39.9c0-5.1-6-9.1-11.1-9.1c-5.7,0-10.9,4.3-10.9,9.1V78
				c0,1.6-1.3,2.8-2.8,2.8H54.7c-1,0-1.9-0.8-1.9-1.8v-4.1c0-1,0.7-1.8,1.7-1.9c5.7-0.7,7.2-5.6,7.2-8.1V53.2c0-5-3.7-8.9-8.7-9.1
				c-4.1-0.2-6.3,1.4-7.9,3.1c-0.7,0.8-1,0.9-2,0.9h-5.4c-1,0-1.9-0.8-1.9-1.9V23.5c0-1,0.8-1.9,1.9-1.9h25.7c1,0,1.9,0.8,1.9,1.9
				v4.9c0,1-0.8,1.9-1.9,1.9H44.5l-0.1,8.2c2.1-1.2,5-2.5,8.5-2.5c10.7,0,17.3,8.7,17.3,16.7v12.6c-0.1,2.7-0.8,5.5-2.1,7.8H76
				c0.2,0,0.4-0.2,0.4-0.4V38.8c0-9,9.1-16.8,19.4-16.8c9.3,0,19.7,7.2,19.7,16.8v33.8c0,0.2,0.2,0.4,0.4,0.4h6
				c0.2,0,0.4-0.2,0.4-0.4V38.1c0-9,9.1-16.8,19.4-16.8c9.3,0,19.8,7.2,19.8,16.8v40.8c0,0.5-0.2,1-0.5,1.3
				C160.8,80.7,160.4,80.9,159.9,80.9z M96,29.4c6,0,12.6,4.5,12.6,10.6v38.1c0,0.7,0.6,1.3,1.3,1.3h18.3c0.7,0,1.3-0.6,1.3-1.3
				V39.4c0-5.5,5.9-10.6,12.4-10.6c6,0,12.7,4.5,12.7,10.6v39.7c0,0.2,0.2,0.4,0.4,0.4h4.8c0.1,0,0.2-0.1,0.3-0.1
				c0,0,0.1-0.1,0.1-0.3V38.3c0-8.8-9.6-15.3-18.3-15.3c-9.5,0-17.9,7.2-17.9,15.3v34.5c0,1.1-0.9,1.9-1.9,1.9h-6
				c-1.1,0-1.9-0.8-1.9-1.9V38.9c0-8.8-9.6-15.3-18.2-15.3c-9.5,0-17.9,7.2-17.9,15.3v33.9c0,1.1-0.9,1.9-1.9,1.9H68
				c-0.5,0-0.9-0.2-1.1-0.7c-0.2-0.4-0.2-0.9,0-1.3c1.3-2.2,2-4.8,2-7.4V52.7c0-7.3-6-15.2-15.8-15.2c-3.9,0-6.9,1.8-8.2,2.6
				c-0.4,0.2-0.8,0.2-1.2,0s-0.6-0.6-0.6-1.1v-8.6c0-0.9,0.7-1.6,1.6-1.6h18.9c0.2,0,0.4-0.2,0.4-0.4v-4.9c0-0.2-0.2-0.4-0.4-0.4
				H37.9c-0.2,0-0.4,0.2-0.4,0.4v22.7c0,0.2,0.2,0.4,0.4,0.4h5.4c0.5,0,0.5,0,1-0.5c1.7-1.7,4.2-3.7,9-3.5
				c5.8,0.2,10.1,4.8,10.1,10.6v11.7c0,4.1-2.7,8.9-8.5,9.6c-0.3,0-0.4,0.2-0.4,0.4V79c0,0.2,0.2,0.4,0.4,0.4h27.6
				c0.7,0,1.3-0.6,1.3-1.3V40C83.6,34.5,89.5,29.4,96,29.4z"/>
		</g>
		<g id="XMLID_57_">
			<path id="XMLID_70_" class="st0" d="M111.8,19.9l-0.6,1.2c-0.2,0.4-0.6,0.5-0.9,0.3c-4-1.8-9-2.9-14.4-2.9s-10.4,1.1-14.4,2.9
				c-0.4,0.2-0.8,0-0.9-0.4L80,19.8c-0.2-0.4,0-0.8,0.4-1C84.9,17,90.2,16,96,16c5.7,0,11.1,1,15.5,2.8
				C111.9,19.1,112,19.5,111.8,19.9z"/>
			<path id="XMLID_54_" class="st0" d="M111.5,18.9c-4.5-1.8-9.8-2.8-15.5-2.8c-5.8,0-11.1,1-15.6,2.8c-0.4,0.1-0.5,0.6-0.4,1
				l0.6,1.2c0.2,0.4,0.6,0.5,0.9,0.4c4-1.8,9-2.9,14.4-2.9s10.4,1.1,14.4,2.9c0.4,0.2,0.8,0,0.9-0.3l0.6-1.2
				C112,19.5,111.9,19.1,111.5,18.9z M110.6,20.8c-4.3-1.9-9.4-2.9-14.7-2.9c-5.3,0-10.4,1-14.7,3l-0.6-1.2
				c4.5-1.8,9.8-2.8,15.3-2.8s10.7,1,15.2,2.7L110.6,20.8z"/>
		</g>
		<g id="XMLID_53_">
			<path id="XMLID_67_" class="st0" d="M113,15.9l-0.5,1.1c-0.1,0.3-0.5,0.5-0.9,0.4c-4.6-1.7-10-2.6-15.7-2.6s-11.1,0.9-15.7,2.6
				c-0.4,0.1-0.7,0-0.9-0.4l-0.5-1.1c-0.2-0.4,0-0.8,0.4-1c5-1.6,10.7-2.6,16.7-2.6s11.7,0.9,16.7,2.6C113,15,113.2,15.5,113,15.9z"
				/>
			<path id="XMLID_50_" class="st0" d="M112.6,14.9c-5-1.6-10.7-2.6-16.7-2.6s-11.7,0.9-16.7,2.6c-0.4,0.1-0.6,0.6-0.4,1l0.5,1.1
				c0.2,0.3,0.5,0.5,0.9,0.4c4.6-1.7,10-2.6,15.7-2.6s11.1,0.9,15.7,2.6c0.3,0.1,0.7,0,0.9-0.4l0.5-1.1
				C113.2,15.5,113,15,112.6,14.9z M111.9,16.6c-4.8-1.7-10.4-2.6-16-2.6S84.7,14.9,80,16.7l-0.5-1.1c5-1.7,10.7-2.5,16.5-2.5
				c5.7,0,11.4,0.9,16.4,2.5L111.9,16.6z"/>
		</g>
		<g id="XMLID_49_">
			<path id="XMLID_64_" class="st0" d="M118.1,6.1c-0.1,0.2-0.5,1.1-1,2.3c-0.7,1.6-1.7,3.7-2.1,4.7c-0.2,0.3-0.5,0.5-0.9,0.4
				c-2-0.7-8.9-2.9-18.1-2.9c-9.7,0-16.2,2.1-18.1,2.9c-0.3,0.1-0.7,0-0.9-0.4c-0.5-1-1.4-3.1-2.1-4.7c-0.5-1.1-0.9-2.1-1-2.3
				c-0.2-0.5-0.1-1.2,0.8-1.5l6.6-2.1c1-0.3,1.5,0.3,1.7,0.8l0.8,3.1c2.1-0.4,4.3-0.8,6.5-0.9h0.1l0,0l0,0l-0.5-3.4
				c-0.1-0.7,0.1-1.4,1-1.4c0,0,3.1-0.6,5.1-0.6s5.1,0.6,5.1,0.6c0.9,0,1.1,0.7,1,1.4l-0.6,3.4c2.3,0.2,4.5,0.6,6.7,1l0.7-3.1
				c0.2-0.5,0.7-1.1,1.7-0.8l6.6,2.1C118.2,4.9,118.3,5.6,118.1,6.1z"/>
			<path id="XMLID_46_" class="st0" d="M117.2,4.6l-6.6-2.1c-1-0.3-1.5,0.3-1.7,0.8l-0.7,3.1c-2.2-0.4-4.4-0.8-6.7-1l0.6-3.4
				c0.1-0.7-0.1-1.4-1-1.4c0,0-3.1-0.6-5.1-0.6s-5.1,0.6-5.1,0.6c-0.9,0-1.1,0.7-1,1.4l0.5,3.4l0,0l0,0c0,0,0,0-0.1,0
				c-2.2,0.1-4.4,0.6-6.5,0.9L83,3.2c-0.2-0.5-0.7-1.1-1.7-0.8l-6.6,2.1c-0.9,0.3-1.1,1-0.8,1.5c0.1,0.2,0.5,1.1,1,2.3
				C75.6,9.9,76.6,12,77,13c0.1,0.3,0.5,0.5,0.9,0.4c1.9-0.7,8.5-2.9,18.1-2.9c9.2,0,16.1,2.2,18.1,2.9c0.3,0.1,0.7,0,0.9-0.4
				c0.5-1,1.4-3.1,2.1-4.7c0.5-1.1,0.9-2.1,1-2.3C118.3,5.6,118.2,4.9,117.2,4.6z M117.4,5.8L117.4,5.8c-0.1,0.2-0.5,1.2-1,2.3
				c-0.7,1.6-1.7,3.7-2,4.7c-2-0.7-9-2.9-18.4-2.9c-9.8,0-16.6,2.2-18.3,2.9c-0.5-1-1.4-3.1-2.1-4.7c-0.5-1.1-0.9-2.1-1-2.3
				c0-0.1-0.1-0.2,0-0.3c0.1-0.1,0.2-0.2,0.4-0.3l6.6-2.1c0.1,0,0.2,0,0.3,0c0.2,0,0.4,0.1,0.5,0.3l0.9,3.8l1.6-0.3
				c1.8-0.3,3.6-0.6,5.5-0.8h0.1h0.9l-0.7-4.2c0-0.3,0-0.5,0-0.5s0.1-0.1,0.4-0.1c0,0,3-0.5,4.9-0.5s4.9,0.5,5,0.5
				c0.2,0,0.3,0,0.3,0.1c0,0,0.1,0.2,0,0.5l-0.7,4.2l0.8,0.1c1.9,0.1,3.8,0.5,5.6,0.8l1.8,0.3l0.8-3.7c0.1-0.4,0.4-0.5,0.8-0.4
				l6.6,2.1c0.2,0.1,0.4,0.2,0.4,0.3C117.4,5.7,117.4,5.8,117.4,5.8z"/>
		</g>
	</g>
</g>
<path id="XMLID_47_" class="st0" d="M107.1,102.9h3.8c2.6,0,4.3,1.3,4.3,3.6c0,2.4-1.9,3.7-4.4,3.7h-2.1v5h-1.6L107.1,102.9
	L107.1,102.9z M108.8,108.9h2c1.7,0,2.9-0.8,2.9-2.3c0-1.6-1.2-2.2-2.9-2.2h-2V108.9z"/>
<path id="XMLID_52_" class="st0" d="M127.1,115.3h-1.7l5.3-12.3h1.5l5.3,12.3h-1.8l-1.3-3.1h-6L127.1,115.3z M129,110.8h4.8
	l-2.4-5.9L129,110.8z M132.3,101.5h-1.4l2.3-3.3h2.1L132.3,101.5z"/>
<path id="XMLID_75_" class="st0" d="M160.4,105.4c-0.7-0.8-1.9-1.3-3.4-1.3c-2.9,0-4.8,2.2-4.8,5s1.8,5,4.8,5c1.2,0,2.3-0.2,3-0.7
	v-3.5h-2.8v-1.4h4.4v5.9c-1.3,0.7-2.8,1.1-4.6,1.1c-3.8,0-6.5-2.7-6.5-6.5s2.8-6.4,6.5-6.4c2,0,3.5,0.6,4.6,1.6L160.4,105.4z"/>
<path id="XMLID_77_" class="st0" d="M178.8,115.3h-1.6V103h1.6V115.3z"/>
<path id="XMLID_79_" class="st0" d="M203,112.9L203,112.9v-10h1.6v12.3h-2l-6.4-10.2l0,0v10.2h-1.6v-12.3h2.1L203,112.9z"/>
<path id="XMLID_81_" class="st0" d="M219.8,115.3h-1.7l5.3-12.3h1.5l5.3,12.3h-1.8l-1.3-3.1h-6L219.8,115.3z M221.7,110.8h4.8
	l-2.4-5.9L221.7,110.8z"/>
<path id="XMLID_84_" class="st0" d="M269.2,115.5c-3.7,0-6.5-2.7-6.5-6.5s2.8-6.4,6.5-6.4s6.5,2.6,6.5,6.4
	C275.8,112.8,273,115.5,269.2,115.5z M269.2,104.1c-2.9,0-4.7,2.3-4.7,5s1.8,5,4.7,5c2.9,0,4.8-2.3,4.8-5
	C274,106.4,272.2,104.1,269.2,104.1z"/>
<path id="XMLID_87_" class="st0" d="M289.7,115.3h-1.6V103h7.6v1.4h-6v3.9h5.6v1.4h-5.6V115.3z"/>
<path id="XMLID_89_" class="st0" d="M311.2,115.3h-1.6V103h1.6V115.3z"/>
<path id="XMLID_91_" class="st0" d="M336.4,113.3c-0.9,1.3-2.5,2.3-4.7,2.3c-3.7,0-6.5-2.7-6.5-6.5s2.8-6.4,6.5-6.4
	c1.7,0,3.5,0.7,4.4,1.9l-1.3,1c-0.6-0.8-1.8-1.5-3.1-1.5c-2.9,0-4.8,2.2-4.8,5s1.8,5,4.7,5c1.4,0,2.6-0.6,3.4-1.6L336.4,113.3z"/>
<path id="XMLID_93_" class="st0" d="M352.2,115.3h-1.6V103h1.6V115.3z"/>
<path id="XMLID_95_" class="st0" d="M367.8,115.3h-1.7l5.3-12.3h1.5l5.3,12.3h-1.8l-1.3-3.1h-6L367.8,115.3z M369.6,110.8h4.8
	l-2.4-5.9L369.6,110.8z"/>
<path id="XMLID_98_" class="st0" d="M393.6,113.8h5.6v1.5H392V103h1.6L393.6,113.8L393.6,113.8z"/>
</svg>
