<?xml version="1.0" encoding="utf-8"?>
<!-- Generator: Adobe Illustrator 21.0.0, SVG Export Plug-In . SVG Version: 6.00 Build 0)  -->
<svg version="1.1" id="Capa_1" xmlns="http://www.w3.org/2000/svg" xmlns:xlink="http://www.w3.org/1999/xlink" x="0px" y="0px"
	 viewBox="0 0 519 141" style="enable-background:new 0 0 519 141;" xml:space="preserve">
<style type="text/css">
	.st0{fill:#32A9E1;}
</style>
<title>Artboard 1</title>
<g id="_Group_">
	<path id="_Path_" class="st0" d="M470.4,94.3h37.2c0.8,0,1.4-0.6,1.4-1.4v-5.2c0-0.8-0.6-1.4-1.4-1.4h-37.2c-0.8,0-1.4,0.6-1.4,1.4
		v5.2C469,93.7,469.6,94.3,470.4,94.3L470.4,94.3z"/>
	<path id="_Path_2" class="st0" d="M8.4,94.3h37.2c0.8,0,1.4-0.6,1.4-1.4l0,0v-5.2c0-0.8-0.6-1.4-1.4-1.4h0H8.4
		c-0.8,0-1.4,0.6-1.4,1.4l0,0v5.2C7,93.7,7.6,94.3,8.4,94.3C8.4,94.3,8.4,94.3,8.4,94.3z"/>
	<path id="_Path_3" class="st0" d="M460,92.8c0,0.8-0.6,1.5-1.4,1.5c0,0,0,0,0,0h-5.2c-0.8,0-1.4-0.6-1.4-1.4V75c0-6.1-4.9-11-11-11
		s-11,4.9-11,11v17.9c0,0.8-0.6,1.4-1.4,1.4h-22.2c-0.8,0-1.4-0.6-1.4-1.4V55c0-6.3-5-10.6-11.1-10.6S383,48.6,383,55v37.9
		c0,0.8-0.6,1.4-1.4,1.4h-23.2c-0.8,0-1.4-0.6-1.4-1.4V75c0-6.1-4.9-11-11-11s-11,4.9-11,11v17.9c0,0.8-0.6,1.4-1.4,1.4h-29.3
		c-0.7,0-1.3-0.6-1.3-1.4v-6.5c0-0.5,0.3-1,0.8-1.3c3.8-1.9,6.2-5.7,6.2-10l0.1-20.1c0-6.4-5.8-10.6-11.1-10.6
		c-5.6,0-11,4.2-11,10.6v37.9c0,0.8-0.6,1.4-1.4,1.4h-23.2c-0.8,0-1.4-0.6-1.4-1.4V75c0-6.1-4.9-11-11-11s-11,4.9-11,11v17.9
		c0,0.8-0.6,1.4-1.4,1.4h-22.2c-0.8,0-1.4-0.6-1.4-1.3c0,0,0,0,0-0.1l-0.1-46.2c0-0.8-0.6-1.4-1.3-1.4c0,0,0,0-0.1,0h-19.1
		c-0.8,0-1.4,0.6-1.4,1.3c0,0,0,0,0,0.1l0.1,46.2c0,0.8-0.6,1.4-1.4,1.4h-5.3c-0.8,0-1.4-0.6-1.4-1.4V16.7c0-0.8,0.6-1.4,1.4-1.4
		h6.2c0.8,0,1.4,0.6,1.4,1.4v18.2c0,0.8,0.6,1.4,1.4,1.4h19.2c0.8,0,1.4-0.6,1.4-1.4V16.7c0-0.8,0.6-1.4,1.4-1.4h5.2
		c0.8,0,1.4,0.6,1.4,1.4v68.2c0,0.8,0.6,1.4,1.4,1.4h5.2c0.8,0,1.4-0.6,1.4-1.4v-9.6c0-10.6,8.5-19.2,19.1-19.3
		c3.6,0,7.1,1,10.1,2.9c0.2,0.2,0.6,0.1,0.7-0.1c0.1-0.1,0.1-0.2,0.1-0.4v-2.6l0.1-0.1c0-6.8-3.6-11.3-10.2-11.3
		c-2-0.1-4,0.5-5.7,1.5c-0.6,0.4-1.4,0.3-1.9-0.2l-4.3-4.3c-0.6-0.6-0.6-1.5,0-2.1c0.1-0.1,0.1-0.1,0.2-0.2
		c3.4-2.6,7.5-3.9,11.7-3.9c11.5,0,19.1,8.6,19.1,20.4v29.2c0,0.8,0.6,1.4,1.4,1.4h6.2c0.8,0,1.4-0.6,1.4-1.4V16.7
		c0-0.8,0.6-1.4,1.4-1.4h6.2c0.8,0,1.4,0.6,1.4,1.4v22.1c0,0.3,0.3,0.6,0.6,0.5c0.1,0,0.1,0,0.2,0c3.1-1.9,6.6-2.8,10.2-2.8
		c10.5,0.1,19,9.3,19,19.8v21.2c-0.4,3.2-1.5,6.2-3.3,8.9h9.9c0.8,0,1.4-0.6,1.4-1.3c0,0,0,0,0-0.1v-9.6c0-11,9.3-19.3,19.8-19.3
		c3.7,0,7.3,1,10.4,2.9c0.2,0.2,0.6,0.1,0.7-0.1c0.1-0.1,0.1-0.2,0.1-0.4v-3c0-6.3-3.2-10.5-9-10.5c-1.8,0-3.5,0.4-5,1.4
		c-0.5,0.4-1.3,0.3-1.7-0.2l-3.8-4c-0.5-0.6-0.5-1.5,0.1-2c0,0,0.1-0.1,0.1-0.1c2.9-2.4,6.6-3.6,10.3-3.6c10.2,0,17,8,17,19v29.5
		c0,0.8,0.6,1.4,1.4,1.4h6.2c0.8,0,1.4-0.6,1.4-1.4V55.2c0-10.4,8-18.9,19.3-18.9c10.8,0,19.7,8.1,19.7,18.9v29.7
		c0,0.8,0.6,1.4,1.4,1.4h5.2c0.8,0,1.4-0.6,1.4-1.4v-9.6c0-11,9.4-19.3,19.7-19.3c3.7,0,7.3,1,10.4,2.9c0.3,0.2,0.7,0.1,0.8-0.2
		c0.1-0.1,0.1-0.2,0.1-0.3v-3.3c0-6.3-3.4-10.5-9.5-10.5c-1.9-0.1-3.7,0.4-5.3,1.4c-0.5,0.4-1.3,0.3-1.7-0.2l-4.1-4
		c-0.6-0.6-0.6-1.5,0-2c0,0,0,0,0,0c3.2-2.4,7-3.7,11-3.6c10.7,0,17.9,8,17.9,19"/>
	<g id="_Group_2">
		<g id="_Group_3">
			<path id="_Path_4" class="st0" d="M167,51.5c0.4-9.2-9.5-16.1-18.6-16.1c-9.6,0-18.7,7.2-18.4,16.1V86c-0.3,0.6-1.5,0.3-1.5,0.3
				h-6c0,0-1.2,0.4-1.5-0.3V52.2c0.3-9.2-9.6-16.1-18.7-16.1c-9.6,0-18.7,7.2-19.3,16.1v33.9c0.6,0.6-0.6,1.2-0.6,1.2h-8
				c-0.3,0-0.6-0.3-0.6-0.6c0-0.1,0-0.2,0.1-0.3c1.4-2.3,2.1-5,2.1-7.7V66c-0.2-9-7.6-16.2-16.6-16c-3.1,0.1-6.1,1-8.7,2.7
				c-0.2,0.1-0.5,0.1-0.6-0.1C50,52.5,50,52.4,50,52.3v-8.6c0,0,0.3-0.8,0.7-0.4h18.9c0.6-0.4,1.1-0.9,1.4-1.5v-4.9
				c-0.4-0.6-0.9-1.1-1.4-1.6H44.1c-0.6,0-1.1,0.5-1.1,1.1v22.8c0,0.6,0.5,1.1,1.1,1.1h5.5c0.8,0,0.9-0.1,1.5-0.7
				c2.2-2.4,5.3-3.6,8.5-3.3c5.3,0.2,9.6,4.6,9.5,9.9v12.7c0,4.4-3.5,8.1-7.9,8.4H61c-0.5,0-1,0.5-1,1v3.9c0,0.6,0.5,1.1,1.1,1.1
				h26.8c1.2,0,2.1-0.9,2.1-2.1V53.1c0-5.4,5.9-9.8,11.9-9.8s12.1,4.4,12.1,9.8v38.1c0,1.2,0.9,2.1,2.1,2.1h17.8
				c1.2,0,2.1-0.9,2.1-2.1V52.5c0-5.4,5.9-9.8,11.9-9.8s12.1,4.4,12.1,9.8v39.7c0,0.6,0.5,1.1,1.1,1.1l0,0h4.9c0,0,1.1-0.4,1-1V51.5
				z"/>
			<path id="_Compound_Path_" class="st0" d="M166.4,93.3h-4.8c0,0-1.9,0.1-1.6-1V52.6c-0.3-5.1-6.3-9.1-11.5-9.1
				c-5.7,0-10.9,4.3-10.5,9.1v38.7c-0.4,1.6-3.2,3-3.2,3h-18c-1.5,0-2.8-1.3-2.8-2.8v0V55.7c0.1-3.8-1.8-7.4-4.9-9.6
				c-7.4-4.9-17.1,0.7-17.1,7.2v38.1c0,1.5-1.3,2.8-2.8,2.8h0H60.9c-1,0-1.9-0.9-1.9-1.9v-4c0-1,0.7-1.8,1.7-1.9
				c4.2-0.4,7.3-3.9,7.3-8.1v-12c0-5-4.1-9.1-9.2-9.1c-2.6,0-5.1,1.1-6.8,3.1c-0.4,0.7-1.2,1-1.9,0.9h-5.2c-1,0-1.8-0.9-1.8-1.9
				V36.3c0-1.1,0.8-2,1.8-2c0,0,0,0,0,0h25.3c1.1,0,1.9,0.9,1.9,2c0,0,0,0,0,0v5.1c0,1.1-0.8,2-1.8,2c0,0,0,0,0,0H51l-0.1,8.2
				c2.6-1.6,5.6-2.5,8.6-2.6C69,48.8,76.8,56.3,77,65.8v12.7c-0.1,2.7-0.8,5.4-2.1,7.8h7.6c0,0,0.4-0.1,0.5-0.3V52.1
				c-0.1-9,9-16.8,19.3-16.8c9.3,0,19.7,7.2,19.7,16.8v33.8c0.1,0.5,0.2,0.9,0.4,1.4h6c0.2-0.5,0.4-1,0.6-1.4V51.4
				c-0.2-9,8.9-16.8,19.2-16.8c9.3,0,19.8,7.2,19.8,16.8v40.8c0,0.5-0.2,0.9-0.5,1.3C167.3,94,166.4,93.3,166.4,93.3z M102.3,42.3
				c6,0,12.7,4.5,12.7,10.6V91c0,0.7,0.6,1.3,1.3,1.3h0h18.4c0,0,1.3-0.2,1.3-0.9V52.7c0-5.5,5.9-10.6,12.4-10.6
				c6,0,12.7,4.5,12.6,10.6v39.7c0.1,0.2,0.5-0.1,0.5-0.1h4.8c0,0,0.2,0.4,0.3,0.4c0.1-0.1,0.3-0.2,0.4-0.3V51.6
				c-0.3-8.8-9.9-15.3-18.6-15.3c-9.5,0-17.9,7.2-17.4,15.3v34.5c-0.6,0.9-1.4,1.7-2.4,2.2h-5.7c-1,0-1.9-0.9-1.9-1.9l0,0V52.5
				c0-8.8-9.6-15.3-18.2-15.3c-9.5,0-17.9,7.2-17.9,15.3v33.9c0,1-0.8,1.9-1.9,1.9h-9c-0.5,0-0.9-0.2-1.1-0.7
				c-0.2-0.4-0.2-0.9,0-1.3c1.3-2.2,2-4.8,2-7.4V66.3c-0.2-8.6-7.3-15.4-15.9-15.2c-2.9,0.1-5.8,1-8.3,2.6c-0.4,0.2-0.8,0.2-1.2,0
				c-0.4-0.2-0.6-0.6-0.6-1.1v-8.7c0-0.9,0.7-1.6,1.6-1.6h19c0.2,0,0.4-0.2,0.4-0.4v0v-5.2c0-0.2-0.2-0.4-0.4-0.4l0,0H44.4
				c-0.2,0-0.4,0.2-0.4,0.4v0v23.2c0,0.2,0.2,0.4,0.4,0.4h0h5.3c0.5,0,0.5,0,1-0.5c2.3-2.5,5.7-3.8,9.1-3.5
				c5.8,0.1,10.3,4.9,10.2,10.7v11.8c0.1,5-3.7,9.2-8.6,9.7c-0.2,0-0.4,0.1-0.4,0.3c0,0,0,0,0,0.1v4.1c0,0.2,0.2,0.4,0.4,0.4h0
				l27.3-1c0.7,0,1.3-0.6,1.3-1.3v0V52.9C89.8,47.4,95.8,42.3,102.3,42.3z"/>
		</g>
		<g id="_Group_4">
			<path id="_Path_5" class="st0" d="M118.3,33.2l-0.6,1.2c-0.1,0.3-0.5,0.5-0.8,0.4c0,0-0.1,0-0.1-0.1c-9.2-3.9-19.6-3.9-28.8,0
				c-0.3,0.2-0.7,0.1-0.8-0.2c0-0.1-0.1-0.1-0.1-0.2l-0.6-1.2c-0.2-0.4,0-0.8,0.3-1c0,0,0,0,0.1,0c5-1.9,10.3-2.9,15.6-2.8
				c5.3-0.1,10.6,0.9,15.5,2.8C118.4,32.3,118.5,32.8,118.3,33.2z"/>
			<path id="_Compound_Path_2" class="st0" d="M118,32.2c-10-3.7-21.1-3.7-31.1,0c-0.4,0.1-0.5,0.6-0.4,1l0.6,1.2
				c0.2,0.3,0.5,0.5,0.9,0.4c9.2-3.9,19.6-3.9,28.8,0c0.3,0.2,0.7,0.1,0.9-0.2c0,0,0,0,0-0.1l0.6-1.2
				C118.5,32.8,118.4,32.4,118,32.2z M117.1,34.1c-4.6-2-9.7-3-14.7-2.9c-5.1-0.1-10.1,1-14.7,3L87.1,33c4.9-1.9,10.1-2.8,15.3-2.8
				c5.2,0,10.3,0.9,15.2,2.7L117.1,34.1z"/>
		</g>
		<g id="_Group_5">
			<path id="_Path_6" class="st0" d="M119.5,29.2l-0.5,1.1c-0.2,0.3-0.5,0.5-0.9,0.4c-10.2-3.5-21.2-3.5-31.4,0
				c-0.4,0.1-0.8,0-0.9-0.4l-0.5-1.1c-0.2-0.4,0-0.8,0.3-1c0,0,0,0,0.1,0c5.4-1.7,11-2.6,16.7-2.6c5.7,0,11.3,0.8,16.7,2.6
				c0.4,0.1,0.6,0.5,0.5,0.9C119.5,29.1,119.5,29.2,119.5,29.2z"/>
			<path id="_Compound_Path_3" class="st0" d="M119.1,28.2c-5.4-1.7-11-2.6-16.7-2.6c-5.7,0-11.3,0.8-16.7,2.6
				c-0.4,0.1-0.6,0.5-0.5,0.9c0,0,0,0.1,0.1,0.1l0.5,1.1c0.2,0.3,0.5,0.5,0.9,0.4c10.2-3.5,21.2-3.5,31.4,0c0.4,0.1,0.7-0.1,0.9-0.4
				l0.5-1.1c0.2-0.3,0.1-0.8-0.3-0.9C119.2,28.2,119.1,28.2,119.1,28.2z M118.4,29.9c-5.2-1.8-10.6-2.6-16-2.6
				C97,27.2,91.6,28.2,86.5,30L86,28.9c5.3-1.7,10.9-2.6,16.5-2.5c5.6,0,11.1,0.8,16.4,2.5L118.4,29.9z"/>
		</g>
		<g id="_Group_6">
			<path id="_Path_7" class="st0" d="M124.6,19.9c-0.1,0.2-0.5,1.1-1,2.3c-0.7,1.6-1.7,3.7-2.1,4.7c-0.2,0.3-0.5,0.5-0.9,0.4
				c-5.8-1.9-11.9-2.9-18.1-2.9c-9.7,0-16.2,2.1-18.1,2.9c-0.4,0.1-0.7-0.1-0.9-0.4c-0.5-1-1.4-3.1-2.1-4.7c-0.5-1.1-0.9-2.1-1-2.3
				c-0.2-0.6,0-1.2,0.6-1.4c0.1,0,0.1-0.1,0.2-0.1l6.6-2.1c0.7-0.3,1.4,0.1,1.7,0.7c0,0,0,0,0,0.1l0.8,3.1c2.1-0.5,4.3-0.8,6.5-0.9
				h0.1l-0.5-3.4c-0.1-0.7,0.1-1.4,1-1.4c1.7-0.3,3.4-0.5,5.1-0.6c1.7,0.1,3.4,0.3,5.1,0.6c0.9,0,1.1,0.7,1,1.4l-0.6,3.4
				c2.3,0.2,4.5,0.6,6.7,1l0.7-3.1c0.2-0.7,0.9-1,1.6-0.8c0,0,0,0,0.1,0l6.6,2.1C124.7,18.7,124.8,19.4,124.6,19.9z"/>
			<path id="_Compound_Path_4" class="st0" d="M123.7,17.5l-6.6-2.1c-0.7-0.3-1.4,0.1-1.7,0.7c0,0,0,0,0,0.1l-0.7,3.1
				c-2.2-0.4-4.4-0.8-6.7-1l0.6-3.4c0.1-0.7-0.1-1.4-1-1.4c-1.7-0.3-3.4-0.5-5.1-0.6c-1.7,0.1-3.4,0.3-5.1,0.6c-0.9,0-1.1,0.7-1,1.4
				l0.5,3.4h-0.1c-2.2,0.1-4.4,0.6-6.5,0.9l-0.8-3.1c-0.2-0.7-0.9-1-1.6-0.8c0,0,0,0-0.1,0l-6.6,2.1c-0.9,0.3-1.1,1-0.8,1.5
				c0.1,0.2,0.5,1.1,1,2.3c0.7,1.6,1.7,3.7,2.1,4.7c0.2,0.3,0.5,0.5,0.9,0.4c5.8-2,11.9-3,18.1-2.9c6.2,0,12.3,1,18.1,2.9
				c0.4,0.1,0.7-0.1,0.9-0.4c0.5-1,1.4-3.1,2.1-4.7c0.5-1.1,0.9-2.1,1-2.3C124.8,18.5,124.7,17.8,123.7,17.5z M124,19L124,19
				c-0.1,0.2-0.5,1.2-1,2.3c-0.7,1.6-1.7,3.7-2,4.7c-6-2-12.3-2.9-18.6-2.9c-9.9,0-16.8,2.2-18.5,2.9c-0.5-1-1.4-3.1-2.1-4.7
				c-0.5-1.1-0.9-2.1-1-2.3s-0.1-0.2,0-0.3c0.1-0.1,0.2-0.2,0.4-0.3l6.7-2.1h0.3c0.2,0,0.4,0.1,0.5,0.3l0.9,3.8l1.6-0.3
				c1.8-0.3,3.6-0.6,5.6-0.8h1L97,15.1v-0.5c0.1-0.1,0.3-0.1,0.4-0.1c1.7-0.3,3.3-0.4,5-0.5c1.7,0.1,3.4,0.2,5.1,0.5
				c0.2,0,0.3,0,0.3,0.1c0.1,0.2,0.1,0.3,0,0.5l-0.8,4.2l0.8,0.1c1.9,0.2,3.8,0.4,5.7,0.8l1.8,0.3l0.8-3.7c0.1-0.4,0.4-0.5,0.8-0.4
				l6.7,2.1c0.2,0.1,0.4,0.2,0.4,0.3L124,19z"/>
		</g>
	</g>
</g>
</svg>
