<?xml version="1.0" encoding="UTF-8"?>
<!DOCTYPE svg PUBLIC "-//W3C//DTD SVG 1.0//EN" "http://www.w3.org/TR/2001/REC-SVG-20010904/DTD/svg10.dtd">
<!-- Creator: CorelDRAW X7 -->
<svg xmlns="http://www.w3.org/2000/svg" xml:space="preserve" width="80px" height="80px" version="1.0" shape-rendering="geometricPrecision" text-rendering="geometricPrecision" image-rendering="optimizeQuality" fill-rule="evenodd" clip-rule="evenodd"
viewBox="0 0 9845 9845"
 xmlns:xlink="http://www.w3.org/1999/xlink">
 <g id="Capa_x0020_1">
  <metadata id="CorelCorpID_0Corel-Layer"/>
  <g id="_352876567648">
   <path fill="#FF6666" fill-rule="nonzero" d="M9845 4922c0,-1359 -551,-2589 -1442,-3480 -891,-891 -2122,-1442 -3481,-1442 -1359,0 -2589,551 -3480,1442 -891,891 -1442,2121 -1442,3480 0,1359 551,2590 1442,3481 891,891 2121,1442 3480,1442 1359,0 2590,-551 3481,-1442 891,-891 1442,-2122 1442,-3481z"/>
   <polyline fill="none" points="3794,6601 5472,4922 3794,3244 "/>
   <path fill="white" fill-rule="nonzero" d="M4112 6383c-120,120 -120,315 0,435 120,120 315,120 435,0l1678 -1678c120,-120 120,-315 0,-435l-1678 -1678c-120,-120 -315,-120 -435,0 -120,120 -120,314 0,435l1461 1460 -1461 1461z"/>
  </g>
 </g>
</svg>
