<?xml version="1.0" encoding="utf-8"?>
<!-- Generator: Adobe Illustrator 22.1.0, SVG Export Plug-In . SVG Version: 6.00 Build 0)  -->
<svg version="1.1" id="Layer_1" xmlns="http://www.w3.org/2000/svg" xmlns:xlink="http://www.w3.org/1999/xlink" x="0px" y="0px"
	 viewBox="0 0 249 343" style="enable-background:new 0 0 249 343;" xml:space="preserve">
<style type="text/css">
	.st0{fill:#E62D2C;}
</style>
<g id="XMLID_2167_">
	<path id="XMLID_2240_" class="st0" d="M92.3,139.8c-3.5,0-6.3,2.8-6.3,6.2v13.8h12.6v-13.8C98.6,142.6,95.8,139.8,92.3,139.8z
		 M95.5,156.8h-6.5v-10.8c0-2,1.7-3.2,3.3-3.2c1.5,0,3.2,1.2,3.2,3.2V156.8z"/>
	<path id="XMLID_2237_" class="st0" d="M114,139.8c-3.5,0-6.3,2.8-6.3,6.2v13.8h12.6v-13.8C120.2,142.6,117.4,139.8,114,139.8z
		 M117.2,156.8h-6.5v-10.8c0-2,1.7-3.2,3.3-3.2c1.5,0,3.2,1.2,3.2,3.2V156.8z"/>
	<path id="XMLID_2234_" class="st0" d="M135.6,139.8c-3.5,0-6.3,2.8-6.3,6.2v13.8h12.6v-13.8C141.8,142.6,139,139.8,135.6,139.8z
		 M138.8,156.8h-6.5v-10.8c0-2,1.7-3.2,3.3-3.2c1.5,0,3.2,1.2,3.2,3.2V156.8z"/>
	<path id="XMLID_2231_" class="st0" d="M157.2,139.8c-3.5,0-6.3,2.8-6.3,6.2v13.8h12.6v-13.8C163.5,142.6,160.7,139.8,157.2,139.8z
		 M160.4,156.8H154v-10.8c0-2,1.7-3.2,3.3-3.2c1.5,0,3.2,1.2,3.2,3.2V156.8z"/>
	<path id="XMLID_2228_" class="st0" d="M114.9,40.4v2.1c0-0.7,0.1-1.4,0.2-2.1H114.9z M134.2,40.4c0.2,0.7,0.2,1.4,0.2,2.1v-2.1
		H134.2z"/>
	<path id="XMLID_2226_" class="st0" d="M110.2,124.3L110.2,124.3l5.2,0l1.3,0H110.2z"/>
	<path id="XMLID_2222_" class="st0" d="M45.3,285.1L45.3,285.1L45.3,285.1L45.3,285.1L45.3,285.1z M49.5,285.1L49.5,285.1l11.8,0v0
		H49.5z M75.8,285.1L75.8,285.1l14.6,0.1v-0.1H75.8z"/>
	<path id="XMLID_2221_" class="st0" d="M112,73.1C112,73.1,112,73.1,112,73.1C112,73.1,112,73.1,112,73.1L112,73.1z"/>
	<rect id="XMLID_2220_" x="45.3" y="242" class="st0" width="12.6" height="0.1"/>
	<rect id="XMLID_2219_" x="191.7" y="242" class="st0" width="12.6" height="0.1"/>
	<path id="XMLID_2212_" class="st0" d="M57.9,242L57.9,242l133.8,0.1V242H57.9z M57.9,242L57.9,242l133.8,0.1V242H57.9z M57.9,242
		L57.9,242l133.8,0.1V242H57.9z M110.2,124.3L110.2,124.3l5.2,0l1.3,0H110.2z M112,73C112,73.1,112,73.1,112,73
		C112,73.1,112,73.1,112,73L112,73z M45.4,285.1L45.4,285.1L45.4,285.1L45.4,285.1L45.4,285.1z"/>
	<path id="XMLID_2179_" class="st0" d="M212.2,48.9c-20.7-20.9-49.3-34.4-78.3-36.9h0c-0.2,0-4.2-0.3-7-0.5V2.4h-4.2v9.2
		c-2.7,0.1-6.3,0.5-6.5,0.5C86.2,15,58,28.2,36.9,49.4C14.6,71.8,2.3,101.5,2.3,133v211.5h244.5V133
		C246.7,101.3,234.5,71.4,212.2,48.9z M124.7,36.9c1.5,0,2.9,0.6,3.9,1.6c0.6,0.5,1,1.2,1.2,1.9h-10.4
		C120.3,38.3,122.3,36.9,124.7,36.9z M45.3,259.8V242h159v17.9H45.3z M204.3,264.5v16.4h-159v-16.4H204.3z M187.5,237.9H62.1V231
		h125.4V237.9z M70.5,226.9V179h2.6v47.9H70.5z M77.3,226.9V179h20.2v47.9H77.3z M101.7,226.9V179h21.1v47.9H101.7z M126.9,226.9
		V179h21.1v47.9H126.9z M152.1,226.9V179h20.2v47.9H152.1z M179.1,226.9h-2.6V179h2.6V226.9z M62.1,174.8v-5.5h125.4v5.5H62.1z
		 M170,165.2H79.6V133H170V165.2z M72.2,128.9v-4.6h38v0h6.5l-1.3,0h62v4.6H72.2z M113.9,77.1h4.6c-6.4,4.9-14.1,17.7-14.3,43.1h-22
		c0.6-18.2,9.4-33.7,22-40.2C109.3,77.3,113.8,77.1,113.9,77.1z M112,73.1C112,73.1,112,73.1,112,73.1L112,73.1
		C112,73.1,112,73.1,112,73.1z M122.5,77h5.1c2.4,2.7,13.8,12.9,14,43.2h-33.1C108.9,89.7,120.2,79.7,122.5,77z M146.1,120.2
		c0.4-25.5-8.9-38-14.2-43.2h4c0,0,4.8,0.6,9.8,2.7c4.8,2.1,9,5.2,11.9,9.1c6.1,7.9,9.4,18.7,9.8,31.4H146.1z M135.8,72.9h-22.1
		v-7.1h22.1V72.9z M130.3,61.7h-11.2V44.6h11.2V61.7z M6.5,133c0-69,56.8-111.7,110.1-116.8c0,0,3.6-0.3,6.1-0.5v17.1
		c-3.8,0.8-6.8,3.7-7.6,7.5c-0.1,0.7-0.2,1.4-0.2,2.1v19.2h-5.4v11.9C91.6,77.9,78.8,96.8,78,120.2H68V133h7.3v32.1H57.9V179h8.4
		v47.9h-8.4v11H34.9v4.2h6.3v17.8h-6.3v4.2h6.3v6.7H6.5V133z M45.4,340.3H6.5v-44.1h38.9V340.3z M45.4,285.2L45.4,285.2l0,6.9H6.5
		v-17.2h34.7v6.1h-6.3v4.2L45.4,285.2L45.4,285.2z M61.3,285.2h-3.4v55.1h-8.4v-55.1L61.3,285.2L61.3,285.2z M90.4,340.3H62.1v-55.2
		h28.3V340.3z M122.7,340.3H94.6v-55.1h28.2V340.3z M156,340.3h-29.1v-55.1H156V340.3z M187.5,340.3h-27.4v-55.1h27.4V340.3z
		 M200.1,340.3h-8.4v-55.1h8.4V340.3z M242.5,340.3h-38.3v-44.1h38.3V340.3z M242.5,292h-38.3v-6.9h10.4v-4.2h-6.2v-6.1h34.1V292z
		 M242.5,270.7h-34.1V264h6.2v-4.2h-6.2V242h6.2v-4.2h-23v-11h-8.4V179h8.4v-13.8h-17.5V133h7.3v-12.9h-10
		c-0.3-13.6-4-25.3-10.6-33.9c-4.8-6.3-12.5-10.9-20.9-12.7V61.7h-5.5V42.5c0-0.7-0.1-1.4-0.2-2.1c-0.4-1.8-1.3-3.5-2.6-4.8
		c-1.3-1.3-2.9-2.2-4.7-2.6V15.8c2.7,0.1,6.5,0.4,6.7,0.5c53.6,4.6,109,49.6,109,116.8V270.7z"/>
	<path id="XMLID_2176_" class="st0" d="M220.6,133.4l0-0.7c0-1.1-0.2-2.1-0.5-3.1c-1.3-3.5-4.7-6.1-8.7-6.1c-4.5,0-8.3,3.2-9.1,7.5
		v0c-2.7,0-10.5,2.6-10.5,13.1v4.9h39.9v-2.9C231.6,139,227.6,133.4,220.6,133.4z M196.3,144.6v-0.5c0-5.1,2.4-8.9,6.8-8.9h3.4v-2.5
		c0-1.1,0.4-2.1,1-2.8c0.9-1.2,2.4-1.9,3.8-1.9c2.3,0,4.7,1.8,4.7,4.7v0.5l0,0v4.4l4.4,0c4.9,0,6.5,3.8,6.5,6.9H196.3z"/>
	<g id="XMLID_2172_">
		<path id="XMLID_2173_" class="st0" d="M36.9,123.3L36.9,123.3c0-0.9-0.2-1.8-0.5-2.6c-1.1-3-3.9-5-7.1-5c-3.5,0-6.6,2.4-7.4,5.8
			c-2.3,0.2-8.2,2.3-8.2,10.5v4.3h31.6v-2.8C45.4,127.7,41.9,123.5,36.9,123.3z M23,125.7h3.1v-2.5c0-0.7,0.2-1.3,0.6-1.9
			c0.6-0.8,1.6-1.2,2.5-1.2c1.5,0,3.1,1.2,3.1,3l0,0v4.4l3.9,0c3.1,0,4.3,2.1,4.5,4.3H18.3C18.4,128.1,20.2,125.7,23,125.7z"/>
	</g>
	<path id="XMLID_2171_" class="st0" d="M59.6,100l-1.9,2.4c-1.2-1-3.3-1-4.5,0.5l-4.8,6.1l-1.9,2.4l-2.4-1.9l-6.1-4.8
		c-1.6-1.2-3.5-0.7-4.5,0.5l-2.4-1.9c2.1-2.7,6.1-3.2,8.8-1.1l6.1,4.8l4.8-6.1C52.9,98.3,56.9,97.9,59.6,100z"/>
	<path id="XMLID_2170_" class="st0" d="M232,162.6l-1.9,2.4c-1.2-1-3.3-1-4.5,0.5l-4.8,6.1l-1.9,2.4l-2.4-1.9l-6.1-4.8
		c-1.6-1.2-3.5-0.7-4.5,0.5l-2.4-1.9c2.1-2.7,6.1-3.2,8.8-1.1l6.1,4.8l4.8-6.1C225.3,161,229.2,160.5,232,162.6z"/>
	<g id="XMLID_2168_">
		<path id="XMLID_2169_" class="st0" d="M59.3,145.7l-1.8,2.3l-0.4-0.3c-0.3-0.3-0.8-0.4-1.2-0.3c-0.3,0-0.7,0.2-1,0.6l-4.5,5.8
			l-5.8-4.5c-0.8-0.6-1.7-0.3-2.2,0.3l-0.3,0.4l-2.3-1.8l0.3-0.4c1.5-1.9,4.3-2.3,6.3-0.8l3.5,2.7l2.7-3.5c1.5-1.9,4.3-2.3,6.3-0.7
			L59.3,145.7z"/>
	</g>
</g>
<polygon id="XMLID_2166_" class="st0" points="126.8,226.9 122.6,226.9 126.8,179 122.6,179 "/>
</svg>
