<?xml version="1.0" encoding="utf-8"?>
<!-- Generator: Adobe Illustrator 22.1.0, SVG Export Plug-In . SVG Version: 6.00 Build 0)  -->
<svg version="1.1" id="Layer_1" xmlns="http://www.w3.org/2000/svg" xmlns:xlink="http://www.w3.org/1999/xlink" x="0px" y="0px"
	 viewBox="0 0 249 357" style="enable-background:new 0 0 249 357;" xml:space="preserve">
<style type="text/css">
	.st0{fill:#E62D2C;}
</style>
<g id="XMLID_2463_">
	<path id="XMLID_2515_" class="st0" d="M94.3,214l-1.1,28.1L94.3,214L94.3,214z M127.5,242l-0.1,7h0.5v-7H127.5z"/>
	<polygon id="XMLID_2514_" class="st0" points="131.9,246.3 131.9,253.7 131.8,253.7 131.9,246.3 	"/>
	<path id="XMLID_2512_" class="st0" d="M98.9,209l0,1.2l-0.1,3.6L97.6,242h0l1.1-28.1l0.1-3.3L98.9,209L98.9,209z"/>
	<path id="XMLID_2510_" class="st0" d="M98.9,209.4l0,1.1l-0.1,3.5h0l0.1-3.2L98.9,209.4l0.1-1.8L98.9,209.4z"/>
	<path id="XMLID_2506_" class="st0" d="M30.8,352.7v4.4h13.6v-4.4H30.8z"/>
	<path id="XMLID_2490_" class="st0" d="M137.3,24.8c-1-0.6-2.2-1-3.5-1.2c-0.8-3.7-3.6-6.5-7.1-7v-17h-4.4v16.9
		c-4,0.1-7.3,3.1-8.1,7.1c-1.3,0.2-2.5,0.7-3.6,1.5c-28.9,3.4-55.8,16.8-75.8,37.7C13.1,85.5,1.6,114.3,1.6,146.1v211h29.2v-4.4H6
		v-14.6c2.4-0.3,3.7-1.4,4.7-2.1c1-0.7,1.5-1.2,3.1-1.2c1.7,0,2.5,0.5,3.6,1.3c1.5,1,3.3,2.2,6.8,2.2c3.6,0,5.3-1.3,6.5-2.3
		c1-0.7,1.5-1.2,3.1-1.2c1.7,0,2.5,0.5,3.6,1.3c1.5,1,3.3,2.2,6.8,2.2c3.6,0,5.3-1.3,6.5-2.3c0.9-0.7,1.5-1.2,3.1-1.2
		c1.7,0,2.5,0.5,3.6,1.3c1.5,1,3.3,2.2,6.8,2.2v-4.4c-2.2,0-3.2-0.6-4.4-1.4c-1.4-0.9-3.1-2-6.1-2c-3.1,0-4.6,1.2-5.8,2.1
		c-1,0.8-1.7,1.3-3.8,1.3c-2.2,0-3.1-0.6-4.4-1.4c-1.4-0.9-3.1-2-6.1-2c-3.1,0-4.6,1.2-5.8,2.1c-1,0.8-1.7,1.3-3.8,1.3
		c-2.2,0-3.1-0.6-4.4-1.4c-1.4-0.9-3.1-2-6.1-2c-3.1,0-4.6,1.2-5.8,2.1c-0.7,0.5-1.2,0.9-2,1.2v-4.1c2.4-0.3,3.7-1.3,4.7-2.1
		c1-0.7,1.5-1.2,3.1-1.2c1.7,0,2.5,0.5,3.6,1.3c1.5,1,3.3,2.2,6.8,2.2c3.6,0,5.3-1.3,6.5-2.3c1-0.7,1.5-1.2,3.1-1.2
		c1.7,0,2.5,0.5,3.6,1.3c1.5,1,3.3,2.2,6.8,2.2c3.6,0,5.3-1.3,6.5-2.3c0.9-0.7,1.5-1.2,3.1-1.2c1.7,0,2.5,0.5,3.6,1.3
		c1.5,1,3.3,2.2,6.8,2.2v-4.4c-2.2,0-3.2-0.6-4.4-1.4c-1.4-0.9-3.1-2-6.1-2c-3.1,0-4.6,1.2-5.8,2.1c-1,0.8-1.7,1.3-3.8,1.3
		c-2.2,0-3.1-0.6-4.4-1.4c-1.4-0.9-3.1-2-6.1-2c-3.1,0-4.6,1.2-5.8,2.1c-1,0.8-1.7,1.3-3.8,1.3c-2.2,0-3.1-0.6-4.4-1.4
		c-1.4-0.9-3.1-2-6.1-2c-0.2,0-0.4,0-0.6,0l2.5-26.8h63v-4.4H32.5l4.7-44.3h13.5v7.4h11.8v-7.4h20.7v7.4h13.3v-7.4h20.7v7.4h14.6
		l0.1-7.4h19.3v7.4h14.8v-7.4h22.2v7.4h11.8v-7.4h23.6v-50.2H243v106.4H114.2v4.4H243v18c-0.8-0.3-1.3-0.7-2-1.1
		c-1.4-0.9-3.1-2-6.1-2c-3.1,0-4.6,1.2-5.8,2.1c-1,0.8-1.7,1.3-3.8,1.3c-2.2,0-3.1-0.6-4.4-1.4c-1.4-0.9-3.1-2-6.1-2
		c-3.1,0-4.6,1.2-5.8,2.1c-1,0.8-1.7,1.3-3.8,1.3c-2.2,0-3.1-0.6-4.4-1.4c-1.4-0.9-3-2-6.1-2c-3.1,0-4.6,1.2-5.8,2.1
		c-1,0.8-1.7,1.3-3.8,1.3v4.4c3.6,0,5.3-1.3,6.5-2.3c1-0.7,1.5-1.2,3.1-1.2c1.7,0,2.5,0.5,3.7,1.3c1.5,1,3.3,2.2,6.8,2.2
		c3.6,0,5.3-1.3,6.5-2.3c0.9-0.7,1.5-1.2,3.1-1.2c1.7,0,2.5,0.5,3.7,1.3c1.5,1,3.3,2.2,6.8,2.2c3.6,0,5.3-1.3,6.5-2.3
		c1-0.7,1.5-1.2,3.1-1.2c1.7,0,2.5,0.5,3.6,1.3c1.1,0.7,2.4,1.6,4.4,1.9v4c-0.8-0.3-1.3-0.6-2-1.1c-1.4-0.9-3.1-2-6.1-2
		c-3.1,0-4.6,1.2-5.8,2.1c-1,0.8-1.7,1.3-3.8,1.3c-2.2,0-3.1-0.6-4.4-1.4c-1.4-0.9-3.1-2-6.1-2c-3.1,0-4.6,1.2-5.8,2.1
		c-1,0.8-1.7,1.3-3.8,1.3c-2.2,0-3.1-0.6-4.4-1.4c-1.4-0.9-3-2-6.1-2c-3.1,0-4.6,1.2-5.8,2.1c-1,0.8-1.7,1.3-3.8,1.3v4.4
		c3.6,0,5.3-1.3,6.5-2.3c1-0.7,1.5-1.2,3.1-1.2c1.7,0,2.5,0.5,3.7,1.3c1.5,1,3.3,2.2,6.8,2.2c3.6,0,5.3-1.3,6.5-2.3
		c0.9-0.7,1.5-1.2,3.1-1.2c1.7,0,2.5,0.5,3.7,1.3c1.5,1,3.3,2.2,6.8,2.2c3.6,0,5.3-1.3,6.5-2.3c1-0.7,1.5-1.2,3.1-1.2
		c1.7,0,2.5,0.5,3.6,1.3c1.1,0.7,2.4,1.6,4.4,2v14.7H44.4v4.4h203v-211C247.4,75.1,190.8,30.8,137.3,24.8z M112.4,29.3
		c0.9-0.9,2.1-1.4,3.7-1.4h2.2v-2.2c0-2.6,1.8-4.7,4-4.7h3.1c2.2,0,4,2.1,4,4.7v2.2h2.2c1.9,0,3.3,0.5,4.2,1.5c1.9,2,2.1,5.9,2,8.6
		H110C110.1,35.3,110.4,31.3,112.4,29.3z M137.8,55.8v7.4H126v-7.4H137.8z M126,51.3v-8.6h11.8v8.6H126z M149.6,77.9v5.9H96.5v-5.9
		H149.6z M109.8,42.8h11.8v8.6h-11.8V42.8z M109.8,55.8h11.8v7.4h-11.8V55.8z M109.8,67.6h28.1v5.9h-28.1V67.6z M93.2,241.9H92v7.4
		h-4.4v-7.4H58.1v7.4h-3v-7.4h-8.5l3.6-28.1h44.1L93.2,241.9z M94.6,207.1l-0.1,2.3H62.8l2.6-22.2h8.9v-5.9h21.2L94.6,207.1z
		 M95.7,176.9H69.9v5.9h-8.4l-3.2,26.6h-12l-4.2,32.5h-8.9L28,290.6H11.7l-3.1,32.8c-0.2,0.2-0.4,0.3-0.6,0.5
		c-0.7,0.5-1.2,0.9-2,1.1V146.1C6,88,49,39,106.9,30.1c-1,2.7-1.3,5.7-1.3,8h-3.2v4.7h3v20.4h-3v4.4h3v5.9H92v14.8h7.1L95.7,176.9z
		 M127.5,241.9v7.4h-5.9v-7.4H97.6l1.1-28.1l0.1-3.4l0-1l4.7-121.1h40.1l6.5,153.6H127.5z M182.1,241.9h-20.7v7.4h-5.9v-7.4h-0.8
		l-1.6-47.3h29V241.9z M219.1,241.9h-23.6v7.4h-3v-7.4h-5.9v-28.1h32.5V241.9z M243,191.7h-23.9v17.7h-32.5v-19.2h-34.1l-4.3-101.9
		h5.9V73.5h-11.8v-5.9h3v-4.4h-3V42.8h3V38h-2.8c0.1-2.4,0-5.5-1.1-8.2C191.5,37.5,243,79.7,243,146.1V191.7z"/>
	<path id="XMLID_2489_" class="st0" d="M185,333.8v4.4c-3.5,0-5.3-1.2-6.8-2.2c-1.2-0.8-2-1.3-3.6-1.3c-1.6,0-2.2,0.4-3.1,1.2
		c-1.2,0.9-2.9,2.3-6.5,2.3c-3.5,0-5.3-1.2-6.8-2.2c-1.2-0.8-1.9-1.3-3.6-1.3c-1.6,0-2.2,0.4-3.1,1.2c-1.2,0.9-2.9,2.3-6.5,2.3
		c-3.5,0-5.3-1.2-6.8-2.2c-1.2-0.8-2-1.3-3.7-1.3c-1.6,0-2.2,0.4-3.1,1.2c-1.2,0.9-2.9,2.3-6.5,2.3v-4.4c2.1,0,2.7-0.5,3.8-1.3
		c1.2-0.9,2.7-2.1,5.8-2.1c3,0,4.7,1.1,6.1,2c1.2,0.8,2.2,1.4,4.4,1.4c2.1,0,2.8-0.5,3.8-1.3c1.2-0.9,2.7-2.1,5.8-2.1
		c3,0,4.7,1.1,6.1,2c1.2,0.8,2.2,1.4,4.4,1.4c2.1,0,2.7-0.5,3.8-1.3c1.2-0.9,2.7-2.1,5.8-2.1c3,0,4.7,1.1,6.1,2
		C181.9,333.2,182.9,333.8,185,333.8z"/>
	<path id="XMLID_2488_" class="st0" d="M185,325.2v4.4c-3.5,0-5.3-1.2-6.8-2.2c-1.2-0.8-2-1.3-3.6-1.3c-1.6,0-2.2,0.4-3.1,1.2
		c-1.2,1-2.9,2.3-6.5,2.3c-3.5,0-5.3-1.2-6.8-2.2c-1.2-0.8-1.9-1.3-3.6-1.3c-1.6,0-2.2,0.4-3.1,1.2c-1.2,0.9-2.9,2.3-6.5,2.3
		c-3.5,0-5.3-1.2-6.8-2.2c-1.2-0.8-2-1.3-3.7-1.3c-1.6,0-2.2,0.4-3.1,1.2c-1.2,1-2.9,2.3-6.5,2.3v-4.4c2.1,0,2.7-0.5,3.8-1.3
		c1.2-0.9,2.7-2.1,5.8-2.1c3,0,4.7,1.1,6.1,2c1.2,0.8,2.2,1.4,4.4,1.4c2.1,0,2.8-0.5,3.8-1.3c1.2-0.9,2.7-2.1,5.8-2.1
		c3,0,4.7,1.1,6.1,2c1.2,0.8,2.2,1.4,4.4,1.4c2.1,0,2.7-0.5,3.8-1.3c1.2-0.9,2.7-2.1,5.8-2.1c3,0,4.7,1.1,6.1,2
		C181.9,324.6,182.9,325.2,185,325.2z"/>
	<path id="XMLID_2487_" class="st0" d="M124.8,333.8v4.4c-3.5,0-5.3-1.2-6.8-2.2c-1.2-0.8-1.9-1.3-3.6-1.3c-1.6,0-2.2,0.4-3.1,1.2
		c-1.2,0.9-2.9,2.3-6.5,2.3c-3.5,0-5.3-1.2-6.8-2.2c-1.2-0.8-2-1.3-3.6-1.3c-1.6,0-2.2,0.4-3.1,1.2c-1.2,0.9-2.9,2.3-6.5,2.3
		c-3.5,0-5.3-1.2-6.8-2.2c-1.2-0.8-1.9-1.3-3.6-1.3c-1.6,0-2.2,0.4-3.1,1.2c-1.2,0.9-2.9,2.3-6.5,2.3v-4.4c2.1,0,2.8-0.5,3.8-1.3
		c1.2-0.9,2.7-2.1,5.8-2.1c3,0,4.7,1.1,6.1,2c1.2,0.8,2.2,1.4,4.4,1.4c2.1,0,2.7-0.5,3.8-1.3c1.2-0.9,2.7-2.1,5.8-2.1
		c3,0,4.7,1.1,6.1,2c1.2,0.8,2.2,1.4,4.4,1.4c2.1,0,2.8-0.5,3.8-1.3c1.2-0.9,2.7-2.1,5.8-2.1c3,0,4.7,1.1,6.1,2
		C121.6,333.2,122.6,333.8,124.8,333.8z"/>
	<path id="XMLID_2486_" class="st0" d="M124.8,325.2v4.4c-3.5,0-5.3-1.2-6.8-2.2c-1.2-0.8-1.9-1.3-3.6-1.3c-1.6,0-2.2,0.4-3.1,1.2
		c-1.2,0.9-2.9,2.3-6.5,2.3c-3.5,0-5.3-1.2-6.8-2.2c-1.2-0.8-2-1.3-3.6-1.3c-1.6,0-2.2,0.4-3.1,1.2c-1.2,1-2.9,2.3-6.5,2.3
		c-3.5,0-5.3-1.2-6.8-2.2c-1.2-0.8-1.9-1.3-3.6-1.3c-1.6,0-2.2,0.4-3.1,1.2c-1.2,0.9-2.9,2.3-6.5,2.3v-4.4c2.1,0,2.8-0.5,3.8-1.3
		c1.2-0.9,2.7-2.1,5.8-2.1c3,0,4.7,1.1,6.1,2c1.2,0.8,2.2,1.4,4.4,1.4c2.1,0,2.7-0.5,3.8-1.3c1.2-0.9,2.7-2.1,5.8-2.1
		c3,0,4.7,1.1,6.1,2c1.2,0.8,2.2,1.4,4.4,1.4c2.1,0,2.8-0.5,3.8-1.3c1.2-0.9,2.7-2.1,5.8-2.1c3,0,4.7,1.1,6.1,2
		C121.6,324.6,122.6,325.2,124.8,325.2z"/>
	<path id="XMLID_2483_" class="st0" d="M124.1,101.5c-3.5,0-6.3,2.8-6.3,6.2v11.8h12.6v-11.8C130.3,104.3,127.5,101.5,124.1,101.5z
		 M127.3,116.5h-6.5v-8.8c0-2,1.7-3.2,3.3-3.2c1.5,0,3.2,1.2,3.2,3.2V116.5z"/>
	<path id="XMLID_2480_" class="st0" d="M124.1,136.8c-3.5,0-6.3,2.8-6.3,6.2v11.8h12.6V143C130.3,139.6,127.5,136.8,124.1,136.8z
		 M127.3,151.8h-6.5V143c0-2,1.7-3.2,3.3-3.2c1.5,0,3.2,1.2,3.2,3.2V151.8z"/>
	<path id="XMLID_2477_" class="st0" d="M124.1,172.1c-3.5,0-6.3,2.8-6.3,6.2v11.8h12.6v-11.8C130.3,174.9,127.5,172.1,124.1,172.1z
		 M127.3,187.1h-6.5v-8.8c0-2,1.7-3.2,3.3-3.2c1.5,0,3.2,1.2,3.2,3.2V187.1z"/>
	<path id="XMLID_2474_" class="st0" d="M124.1,207.4c-3.5,0-6.3,2.8-6.3,6.2v11.8h12.6v-11.8C130.3,210.2,127.5,207.4,124.1,207.4z
		 M127.3,222.4h-6.5v-8.8c0-2,1.7-3.2,3.3-3.2c1.5,0,3.2,1.2,3.2,3.2V222.4z"/>
	<path id="XMLID_2471_" class="st0" d="M73.1,118l0-0.7c0-1.1-0.2-2.1-0.5-3.1c-1.3-3.5-4.7-6.1-8.7-6.1c-4.5,0-8.3,3.2-9.1,7.5v0
		c-2.7,0-10.5,2.6-10.5,13.1v4.9h39.9v-2.9C84.1,123.7,80.1,118,73.1,118z M48.9,129.3v-0.5c0-5.1,2.4-8.9,6.8-8.9h3.4v-2.5
		c0-1.1,0.4-2.1,1-2.8c0.9-1.2,2.4-1.9,3.8-1.9c2.3,0,4.7,1.8,4.7,4.7v0.5l0,0v4.4l4.4,0c4.9,0,6.5,3.8,6.5,6.9H48.9z"/>
	<g id="XMLID_2467_">
		<path id="XMLID_2468_" class="st0" d="M193.7,137.8L193.7,137.8c0-0.9-0.2-1.8-0.5-2.6c-1.1-3-3.9-5-7.1-5c-3.5,0-6.6,2.4-7.4,5.8
			c-2.3,0.2-8.2,2.3-8.2,10.5v4.3h31.6V148C202.2,142.2,198.7,138,193.7,137.8z M179.8,140.2h3.1v-2.5c0-0.7,0.2-1.3,0.6-1.9
			c0.6-0.8,1.6-1.2,2.5-1.2c1.5,0,3.1,1.2,3.1,3h0v4.4l3.9,0c3.1,0,4.3,2.1,4.5,4.3h-22.5C175.2,142.6,177,140.2,179.8,140.2z"/>
	</g>
	<path id="XMLID_2466_" class="st0" d="M50.8,152.1l-1.9,2.4c-1.2-1-3.3-1-4.5,0.5l-4.8,6.1l-1.9,2.4l-2.4-1.9l-6.1-4.8
		c-1.6-1.2-3.5-0.7-4.5,0.5l-2.4-1.9c2.1-2.7,6.1-3.2,8.8-1.1l6.1,4.8l4.8-6.1C44.1,150.4,48,150,50.8,152.1z"/>
	<g id="XMLID_2464_">
		<path id="XMLID_2465_" class="st0" d="M214,107.2l-1.8,2.3l-0.4-0.3c-0.3-0.3-0.8-0.4-1.2-0.3c-0.3,0-0.7,0.2-1,0.6l-4.5,5.8
			l-5.8-4.5c-0.8-0.6-1.7-0.3-2.2,0.3l-0.3,0.4l-2.3-1.8l0.3-0.4c1.5-1.9,4.3-2.3,6.3-0.8l3.5,2.7l2.7-3.5c1.5-1.9,4.3-2.3,6.3-0.7
			L214,107.2z"/>
	</g>
</g>
</svg>
