<?xml version="1.0" encoding="utf-8"?>
<!-- Generator: Adobe Illustrator 22.1.0, SVG Export Plug-In . SVG Version: 6.00 Build 0)  -->
<svg version="1.1" id="Layer_1" xmlns="http://www.w3.org/2000/svg" xmlns:xlink="http://www.w3.org/1999/xlink" x="0px" y="0px"
	 viewBox="0 0 259 354" style="enable-background:new 0 0 259 354;" xml:space="preserve">
<style type="text/css">
	.st0{fill:#E62D2C;}
</style>
<g id="XMLID_2298_">
	<polygon id="XMLID_2343_" class="st0" points="182.4,96.7 182.3,96.8 182.3,96.7 	"/>
	<path id="XMLID_2342_" class="st0" d="M178.7,86.7l-0.1,0.1c-0.7-0.3-1.5-0.9-2.6-1.7L178.7,86.7z"/>
	<polygon id="XMLID_2341_" class="st0" points="182.4,96.7 182.3,96.8 182.3,96.7 	"/>
	<path id="XMLID_2340_" class="st0" d="M186.7,97.4c0,0.1,0,0.1,0,0.2l-0.1-0.2L186.7,97.4z"/>
	<polygon id="XMLID_2339_" class="st0" points="186.6,97.4 186.4,97.3 186.5,97.1 	"/>
	<path id="XMLID_2313_" class="st0" d="M231.8,77.8c-1.7-1.5-3.6-2.7-3.6-2.7c0.5-2.1-0.3-4.3-2.2-5.6l-6.3-4.1l-1.9,2.8l-8.6-5.8
		l6.1-9.3l2.7,1.8l4.2-6.3c0.8-1.2,1.1-2.6,0.7-4c-0.1-0.7-0.4-1.3-0.8-1.8l1.9-2.9l-3.7-2.4l-2,3.1c-0.5-0.1-0.9,0-1.4,0
		c-1.4,0.3-2.6,1-3.5,2.3l-4.1,6.3l2.4,1.6l-1.5,2.3c-18.4-18.2-45.6-27.8-62.7-30.7l0,0l-1.4-4.4l-6.8,4.9l-5.3-4.2l6.5-7.7
		l-3.4-2.8l-6.6,7.8l-5-4l4.7-7.8l-5-0.5l-4.8,8.3l-8.1,5.6l-4.5,5.7l-1,0.1c-27.2,5.3-52.2,19.4-70.3,39.9
		c-19.5,22-29.8,49.4-29.8,79.3v211.6h245.8V142.5C252.4,113.2,246.4,90.5,231.8,77.8z M215.6,44.6c0.3-0.5,0.7-0.8,1.2-1
		c0.8-0.3,1.6-0.2,2.3,0.3c0.5,0.3,0.8,0.8,1,1.4c0.2,0.7,0.1,1.4-0.3,2.1l-2.4,3.7l-0.7-0.5l-3.1-2l-0.4-0.3L215.6,44.6z M218.2,73
		l1.9-2.9l0.5-0.8l3.5,2.3c0.7,0.5,1,1.1,1.1,1.9c0,0.5-0.1,1-0.4,1.5c-0.4,0.7-1.2,1.1-2.1,1.1c-0.4,0-0.9-0.1-1.3-0.4l-3.5-2.3
		L218.2,73z M141.3,26.8l1-0.7h0c16,1.6,46,11.1,65.4,30.7l-2.1,3.2l-7.1-4.8l1.9-2.8l-6.3-4.1c-1.8-1.2-4.2-1.1-5.9,0.1l-2.7-1.8
		l-2.5,3.7l3,2c-0.2,1.9,0.6,3.8,2.3,4.9l6.3,4.2l1.5-2.3l7.1,4.8l-5.1,7.8l-2.4-1.6l-4.2,6.3c-0.8,1.2-1.1,2.6-0.7,4
		c0.1,0.5,0.3,1,0.5,1.4l-2.2,3.3c-1.6,0.8-5.5,2.5-9.8,2.3c-0.2,0-0.5-0.1-0.9-0.3c-0.7-0.3-1.5-0.9-2.6-1.7l-0.1,0
		c-6.7-5.2-20.3-19.3-31.8-32.3c-0.6-0.7-6.2-6.7-12-7.6c-0.7-0.1-0.9-0.4-1.1-0.6c-0.6-1-0.4-3.1-0.1-4.3L141.3,26.8z M196.5,53.1
		l-0.5,0.8l-2,3l-0.2,0.3l-3.6-2.4c-0.5-0.3-0.8-0.7-1-1.2c-0.3-0.7-0.2-1.6,0.3-2.3c0.3-0.5,0.8-0.8,1.3-1c0.7-0.2,1.4-0.1,2.1,0.3
		L196.5,53.1z M200.7,76.5l-2.4,3.6c-0.4,0.6-1,1-1.7,1.1c-0.6,0.1-1.2-0.1-1.7-0.4c-0.6-0.4-1-1.1-1.1-1.9c0-0.5,0.1-1.1,0.4-1.6
		l2.4-3.6L197,74l3,2L200.7,76.5z M81,305.2c4.3-20.9,23-36.4,44.7-36.4c12.2,0,23.6,4.7,32.3,13.4c6.4,6.4,10.6,14.3,12.4,23H81z
		 M183.2,309.7v5.9H68.4v-5.9H183.2z M153.8,273.1c-8.2-5.6-18-8.7-28.1-8.7c-11.5,0-22.2,3.9-30.7,10.6v-20.9h58.9V273.1z
		 M108.5,249.7l8.8-28.3c2.5,1,5.2,1.5,8.1,1.5c2.7,0,5.2-0.5,7.6-1.3l9.5,28.1H108.5z M125.4,218.5c-2.4,0-4.7-0.5-6.8-1.3
		c-0.4-0.1-0.8-0.3-1.1-0.5c-5.9-2.9-9.9-9-9.9-16c0-9.8,8-17.9,17.8-17.9c9.8,0,17.9,8,17.9,17.9
		C143.2,210.5,135.2,218.5,125.4,218.5z M91.8,71.9l8.2-3.6c0.9-0.4,1.9-0.4,2.9,0c0.9,0.4,1.6,1.1,2,2.1l0.9,2.6l1.4,15l-2.5,6.6
		L91.8,71.9z M98.4,92.6L92,92L82,76.2l5.7-2.5L98.4,92.6z M105.6,104.3c1.4,0,5,0.3,7.3,2.5c1.6,1.5,2.4,3.7,2.4,6.6
		c0,0.8,0,1.8,0,3c-0.2,25.4,0.8,55.5,9.9,62c-0.6,0-1.2,0-1.7,0.1l-26.8-53L105.6,104.3z M129.8,175.4c-0.7,0.1-1.3-0.1-2-0.6
		c-5.6-4-8.3-23.6-8.1-58.5c0-1.2,0-2.2,0-3c0-4.2-1.3-7.5-3.9-9.8c-1.5-1.3-3.1-2.2-4.8-2.7c2.1-1.5,4.3-4.1,6.6-7.7
		c3.9-5.9,9.2-6.9,11.6-7.1l7.6,7.6c-0.2,5.5-1.1,33.3-1.2,49.6c0,3.5,1.7,6.8,4.6,8.7c1.2,0.8,2.5,1.4,3.9,1.6L129.8,175.4
		C129.8,175.4,129.8,175.4,129.8,175.4z M149.7,153.1c0.1,0,0.2-0.1,0.2-0.1c1.1-0.4,24.5-9.3,34.1-43.1
		c-0.9,47.1-35.1,60.7-48.1,64.1L149.7,153.1z M154.9,145.3l25.4-38.7C174.5,128.8,162.4,140.1,154.9,145.3z M182.3,96.8L182.3,96.8
		L182.3,96.8L182.3,96.8z M147,149.3c-1.5,0.2-3-0.1-4.3-1c-1.7-1.1-2.7-3-2.6-5c0.2-18.1,1.3-50.2,1.3-50.5l0-0.9l-8.8-8.8
		l4.7-13.1c0.2-0.7,0.8-1.3,1.5-1.6c0.7-0.3,1.5-0.2,2.1,0.2l35.5,21.9l0,0c1.1,0.6,2.1,1,2.9,1.1c0.4,0,0.7,0,1.1,0
		c1.8,0,3.4-0.2,4.9-0.6L147,149.3z M123,15.5l13.3,10.6l-1,1.3l-13.5-11.1L123,15.5z M115.4,20.8l2.7-1.9l14.6,12l-5.7,7.3
		l-0.1,0.4c-0.2,0.5-1.5,5.2,0.5,8.3c0.9,1.4,2.4,2.3,4.2,2.6c3.5,0.5,7.9,4.6,9.3,6.1c3.2,3.6,9.7,10.9,16.5,17.9l-14.2-8.7
		c-1.8-1.1-4-1.3-6-0.6c-2,0.8-3.5,2.4-4.1,4.3l-4.7,13.1c-3.5,0.4-9.8,2-14.4,9c-2.5,3.8-4.4,5.7-5.7,6.6l3.3-8.7L110.1,72
		l-1.1-3.1c-0.8-2.1-2.4-3.8-4.4-4.6c-2-0.9-4.4-0.9-6.4,0l-4.7,2.1L117,50.1l0.4-3.1c0.5-4-1-8-4-10.7l-0.5-0.5l-2.7-8.6
		L115.4,20.8z M11,142.5c0-56,38.9-102.9,94.8-114.5l3.2,10.3l1.4,1.3c1.9,1.8,2.9,4.3,2.6,6.9l-0.1,1.1L87.8,64.9l-2.1-3.6l2.5-8.2
		l-11.3-4.3l-3.6,11l8.2,3l2.6,4.6l-9,6.2l14.2,22.6l14.2,1.3L103,99l-11.2,26.7l27.2,53.6c-9.2,2.8-15.8,11.3-15.8,21.3
		c0,7.8,4.1,14.7,10.2,18.7l-9.4,30.4H90.5V279c-7.1,7-12.1,16.1-14.1,26.3H64V320h10.3v29.8H11V142.5z M83.9,55.1l-1.4,4l-4.6-1.5
		l1.5-4.2L83.9,55.1z M170,349.7H78.7V320H170V349.7z M248,349.7h-73.6V320h13.2v-14.7h-12.8c-1.8-9.9-6.6-18.9-13.8-26.1
		c-0.9-0.9-1.9-1.8-2.8-2.6v-26.8h-11L137,219.7c6.4-3.9,10.7-11,10.7-19c0-9.8-6.4-18.2-15.3-21.1c-0.1,0-0.2-0.1-0.4-0.1
		c0,0,0.5-0.1,0.5-0.1c6.7-1.3,59.2-13.4,55.8-77.1l0-0.3l-1.7-4.3l-0.1-0.2l-0.2,0l0.1-0.2l8.4-12.7l0.2-0.3c0.3,0.1,0.7,0.1,1,0.1
		c1.7,0,3.4-0.8,4.4-2.3l4.2-6.3l-2.7-1.8l5.1-7.7l8.6,5.8l-1.5,2.3l6.3,4.2c0.9,0.6,1.9,0.9,2.9,0.9c0.8,0,1.6-0.2,2.4-0.6
		c0,0,2,1.3,2.6,1.8C242.4,91.9,248,114,248,142.5V349.7z"/>
	<path id="XMLID_2310_" class="st0" d="M51.6,139.1l0-0.7c0-1.1-0.2-2.1-0.5-3.1c-1.3-3.5-4.7-6.1-8.7-6.1c-4.5,0-8.3,3.2-9.1,7.5v0
		c-2.7,0-10.5,2.6-10.5,13.1v4.9h39.9v-2.9C62.6,144.7,58.6,139.1,51.6,139.1z M27.4,150.3v-0.5c0-5.1,2.4-8.9,6.8-8.9h3.4v-2.5
		c0-1.1,0.4-2.1,1-2.8c0.9-1.2,2.4-1.9,3.8-1.9c2.3,0,4.7,1.8,4.7,4.7v0.5h0v4.4l4.4,0c4.9,0,6.5,3.8,6.5,6.9H27.4z"/>
	<path id="XMLID_2307_" class="st0" d="M198.9,184.8l0-0.7c0-1.1-0.2-2.1-0.5-3.1c-1.3-3.5-4.7-6.1-8.7-6.1c-4.5,0-8.3,3.2-9.1,7.5
		v0c-2.7,0-10.5,2.6-10.5,13.1v4.9h39.9v-2.9C209.9,190.4,205.9,184.8,198.9,184.8z M174.7,196v-0.5c0-5.1,2.4-8.9,6.8-8.9h3.4v-2.5
		c0-1.1,0.4-2.1,1-2.8c0.9-1.2,2.4-1.9,3.8-1.9c2.3,0,4.7,1.8,4.7,4.7v0.5l0,0v4.4l4.4,0c4.9,0,6.5,3.8,6.5,6.9H174.7z"/>
	<g id="XMLID_2303_">
		<path id="XMLID_2304_" class="st0" d="M88.3,167.8L88.3,167.8c0-0.9-0.2-1.8-0.5-2.6c-1.1-3-3.9-5-7.1-5c-3.5,0-6.6,2.4-7.4,5.8
			c-2.3,0.2-8.2,2.3-8.2,10.5v4.3h31.6v-2.8C96.8,172.2,93.3,168.1,88.3,167.8z M74.4,170.2h3.1v-2.5c0-0.7,0.2-1.3,0.6-1.9
			c0.6-0.8,1.6-1.2,2.5-1.2c1.5,0,3.1,1.2,3.1,3l0,0v4.4l3.9,0c3.1,0,4.3,2.1,4.5,4.3H69.7C69.8,172.7,71.6,170.2,74.4,170.2z"/>
	</g>
	<path id="XMLID_2302_" class="st0" d="M51.1,182.6l-1.9,2.4c-1.2-1-3.3-1-4.5,0.5l-4.8,6.1l-1.9,2.4l-2.4-1.9l-6.1-4.8
		c-1.6-1.2-3.5-0.7-4.5,0.5l-2.4-1.9c2.1-2.7,6.1-3.2,8.8-1.1l6.1,4.8l4.8-6.1C44.4,180.9,48.4,180.5,51.1,182.6z"/>
	<path id="XMLID_2301_" class="st0" d="M222.4,147.6l-1.9,2.4c-1.2-1-3.3-1-4.5,0.5l-4.8,6.1l-1.9,2.4l-2.4-1.9l-6.1-4.8
		c-1.6-1.2-3.5-0.7-4.5,0.5l-2.4-1.9c2.1-2.7,6.1-3.2,8.8-1.1l6.1,4.8l4.8-6.1C215.7,145.9,219.6,145.5,222.4,147.6z"/>
	<g id="XMLID_2299_">
		<path id="XMLID_2300_" class="st0" d="M231.3,170.7l-1.8,2.3l-0.4-0.3c-0.3-0.3-0.8-0.4-1.2-0.3c-0.3,0-0.7,0.2-1,0.6l-4.5,5.8
			l-5.8-4.5c-0.8-0.6-1.7-0.3-2.2,0.3l-0.3,0.4l-2.3-1.8l0.3-0.4c1.5-1.9,4.3-2.3,6.3-0.8l3.5,2.7l2.7-3.5c1.5-1.9,4.3-2.3,6.3-0.7
			L231.3,170.7z"/>
	</g>
</g>
</svg>
