<?xml version="1.0" encoding="utf-8"?>
<!-- Generator: Adobe Illustrator 22.1.0, SVG Export Plug-In . SVG Version: 6.00 Build 0)  -->
<svg version="1.1" id="Layer_1" xmlns="http://www.w3.org/2000/svg" xmlns:xlink="http://www.w3.org/1999/xlink" x="0px" y="0px"
	 viewBox="0 0 279 345" style="enable-background:new 0 0 279 345;" xml:space="preserve">
<style type="text/css">
	.st0{fill:#E62D2C;}
</style>
<g id="XMLID_2423_">
	<g id="XMLID_2437_">
		<path id="XMLID_2444_" class="st0" d="M272.3,138.4c-1.6-3.8-5.5-9.3-7.3-10.7c-1.9-1.5-5.9-2.4-8.2-2c-2.2,0.4-3.2,1.8-3.9,3
			c-0.3,0.4-0.6,0.8-0.9,1.2c-1.1,1.3-2.5,2-2.5,2l-2.5,1.1c-0.4-36-16.4-69.8-44.1-92.9c-11.2-9.3-23.7-16.5-37.4-21.4
			c-2.6-0.9-5.3-1.8-7.9-2.5c-10.9-3.1-22.2-4.7-33.6-4.7c-14.2,0-28.1,2.4-41.4,7.2C33.9,36.1,1.2,82.6,1.2,134.4v210.8h245.9
			L247,172.4c0.5-0.1,1-0.2,1.6-0.5c1-0.5,1.7-1.1,2.1-1.6c5.5-2.4,14.4-6.2,16.5-6.4c1.5-0.2,2.3-0.1,3-0.1
			c0.9,0.1,1.8,0.1,2.9-0.4c2.5-1.2,4.6-8.5,4.7-9.5C278,151.4,272.7,139.4,272.3,138.4z M5.6,134.4c0-49.9,31.5-94.7,78.4-111.5
			C96.8,18.3,110.3,16,124,16c11,0,21.9,1.5,32.4,4.5c2.5,0.7,5.1,1.5,7.6,2.4c13.2,4.7,25.3,11.6,36,20.6
			c27.1,22.6,42.6,56.2,42.6,91.4l-6.4,3c-0.7-0.1-1.7-0.1-2.8,0.3c-1.3,0.4-2,1.1-2.5,1.7l-60,24.5v-3.2h-38.5v10.4h-10.4v-10.4
			h-40v10.4H73v-10.4H33v10.4h-5.9v-10.4H5.6V134.4z M5.6,165.7h17V176h14.8v-10.4h31.1V176h17.8v-10.4h31.1V176h19.3v-10.4h29.6
			l-1.3,0.6c-1-0.3-2.2-0.1-3.3,0.3c-1.4,0.5-2.2,1.4-2.7,2.1l-34.2,13.6c-0.8-0.3-2.1-0.4-3.6-0.1c-1.7,0.4-2.9,1.5-3.5,2.2
			l-27.1,10.1c-0.6-0.1-1.4,0-2.4,0.3c-1.3,0.4-2,1-2.5,1.6l-21.5,7.4l0,1.6c0.2,6.9,0.5,18.4,0.4,19.8c0,0.4-0.1,0.5-0.1,0.6
			c-0.1,0.1-2.2,1.2-2.7,1.1c-0.7-0.1-1.7-0.3-3.2,0c-0.7,0.2-2.1,0.8-2.8,2.8c-1,2.6-0.7,7.2,1.5,10.2c2.1,2.9,4.9,4.5,7.4,4.5
			c0.8,0,1.6-0.2,2.3-0.5c1.3-0.7,1.8-1.7,2.1-2.3c0.2-0.5,0.3-0.6,1.1-0.8c0.9-0.3,1.5-0.3,1.9-0.3l-0.4,4.3L36.9,244l0,6.7l-2.1,0
			l-0.5,26H5.6V165.7z M201.7,298.1c0-0.4,0-0.8-0.1-1.2c0-0.1,0-0.2,0-0.3c0-0.1,0-0.2,0-0.3c0-0.2,0-0.4-0.1-0.6
			c0-0.3-0.1-0.6-0.1-0.8c0-0.4-0.1-0.7-0.2-1.1c0-0.3-0.1-0.6-0.2-0.9c0-0.2-0.1-0.5-0.2-0.7c-0.1-0.4-0.2-0.8-0.3-1.1
			c-0.1-0.4-0.2-0.7-0.3-1.1c-0.1-0.4-0.3-0.7-0.4-1.1c-0.1-0.4-0.3-0.7-0.5-1.1c-0.1-0.3-0.2-0.5-0.4-0.8c-0.1-0.3-0.3-0.6-0.5-0.9
			c0,0,0,0,0-0.1c0,0,0,0,0-0.1c0,0,0-0.1,0-0.1c-0.1-0.3-0.3-0.5-0.4-0.8c-0.1-0.3-0.3-0.6-0.5-0.8c-0.2-0.3-0.4-0.7-0.7-1
			c-0.1-0.1-0.1-0.2-0.2-0.3c-0.4-0.6-0.8-1.1-1.3-1.6c-0.1-0.1-0.2-0.2-0.3-0.3c0,0-1.8-2.4-5-4.4c-0.6-0.4-1.1-0.8-1.7-1.1
			c-0.3-0.2-0.5-0.3-0.8-0.4c-0.4-0.2-0.9-0.5-1.3-0.7c-0.2-0.1-0.4-0.2-0.6-0.3c-0.6-0.3-1.3-0.5-1.9-0.8c-0.3-0.1-0.5-0.2-0.8-0.3
			c-0.3-0.1-0.7-0.2-1-0.3c-0.3-0.1-0.6-0.2-0.9-0.2c-0.4-0.1-0.8-0.2-1.3-0.3c-0.3-0.1-0.7-0.1-1-0.2c-0.2,0-0.3,0-0.5-0.1
			c-0.2,0-0.3,0-0.5-0.1c-0.3,0-0.5,0-0.8-0.1c-0.3,0-0.7-0.1-1-0.1h0c-0.4,0-0.9,0-1.3,0H174c-0.9,0-1.8,0.1-2.6,0.2
			c-0.1,0-0.1,0-0.2,0c-0.4,0-0.8,0.1-1.2,0.2c-0.4,0.1-0.9,0.2-1.3,0.3c-0.4,0.1-0.9,0.2-1.3,0.3c-0.4,0.1-0.9,0.3-1.3,0.4
			c-0.4,0.1-0.8,0.3-1.2,0.4c-0.9,0.3-1.7,0.7-2.5,1.1c-0.3,0.2-0.6,0.3-0.9,0.5c-0.1,0-0.1,0.1-0.2,0.1c-0.3,0.2-0.6,0.4-0.9,0.6
			c-0.1,0-0.1,0.1-0.2,0.1c-0.3,0.2-0.5,0.4-0.8,0.6l0,0c0,0-1.7,1.1-2.7,2c-0.7,0.7-2.4,2.4-2.4,2.4c-0.1,0.1-0.2,0.2-0.2,0.3
			c0,0,0,0.1-0.1,0.1l0,0c-0.1,0-0.1,0.1-0.1,0.2c0,0,0,0,0,0c-0.1,0.2-0.2,0.3-0.4,0.5c-0.3,0.3-0.5,0.6-0.7,1
			c-0.2,0.3-0.5,0.7-0.7,1c-0.5,0.7-0.9,1.4-1.3,2.1c0,0,0,0,0,0c-0.3,0.5-0.6,1.1-0.8,1.7c-0.3,0.6-0.5,1.1-0.7,1.7
			c-0.1,0.4-0.3,0.8-0.4,1.2c0,0.1-0.1,0.3-0.1,0.5c0,0.2-0.1,0.3-0.1,0.5c0,0,0,0.1,0,0.1c0,0.1-0.1,0.3-0.1,0.4
			c-0.1,0.4-0.2,0.8-0.3,1.2c-0.1,0.4-0.1,0.8-0.2,1.2c-0.1,0.4-0.1,0.8-0.2,1.2c0,0.4-0.1,0.8-0.1,1.2h0c-1-0.8-1.9-1.6-2.4-2.4
			c-0.8-1.4-1.6-4.8-2-8.8c-0.1-1.4-1-2.5-2.3-3c-1.1-0.5-14.3-4.5-22.3-4.5c-8,0-21.1,5.9-22.5,6.6c-1,0.6-1.7,1.7-1.7,2.9
			c0,0.5-0.1,2.2-0.5,4.7c-0.1,0.7-0.4,1.3-0.7,1.9c0-0.1-6.2-16.2-22.6-16.2c-12.4,0-17.7,6.3-17.9,6.5l-14.3,0.3l0.6-29.8L75,256
			l0.2-1.8l132.9,4l-1,55h-9.4c0.5-0.8,1-1.6,1.4-2.5c0.2-0.3,0.3-0.7,0.5-1.1c0.3-0.7,0.6-1.5,0.9-2.3c0.3-0.8,0.5-1.6,0.7-2.4
			c0.1-0.4,0.2-0.8,0.2-1.2c0.1-0.3,0.1-0.6,0.1-0.8c0-0.3,0.1-0.5,0.1-0.8c0-0.3,0.1-0.5,0.1-0.8c0-0.4,0.1-0.8,0.1-1.2
			c0-0.3,0-0.5,0-0.8c0-0.1,0-0.2,0-0.3C201.8,298.8,201.7,298.5,201.7,298.1z M197.3,298.3c0.1,5.8-1.9,11.4-5.8,15.7
			c-4.2,4.7-10,7.4-16.3,7.5c-0.2,0-0.4,0-0.6,0c-11.7,0-21.6-9-22.6-20.7c0-0.5-0.1-0.9-0.1-1.4v-0.6c0-0.5,0-0.9,0-1.3v-0.1
			c0-0.3,0-0.6,0.1-0.9v0c0-0.3,0.1-0.6,0.1-0.8c0-0.1,0-0.3,0.1-0.4c0.1-0.2,0.1-0.5,0.1-0.7c0-0.2,0.1-0.4,0.1-0.5
			c0-0.3,0.1-0.5,0.2-0.8c0,0,0,0,0,0c0.1-0.3,0.1-0.6,0.2-0.9l0-0.1l0.3-0.7c0-0.1,0-0.2,0.1-0.2c0.1-0.2,0.1-0.4,0.2-0.6
			c0.1-0.3,0.2-0.6,0.3-0.9c0.1-0.3,0.2-0.5,0.3-0.8c0.2-0.3,0.3-0.7,0.5-1c0.1-0.3,0.3-0.5,0.4-0.7c0.1-0.2,0.2-0.3,0.3-0.5
			c0.1-0.2,0.2-0.3,0.3-0.4c0.4-0.7,1-1.4,1.5-2.1c0.3-0.3,0.5-0.6,0.8-0.9c0.2-0.3,0.5-0.5,0.7-0.8c0.2-0.2,0.4-0.4,0.6-0.5
			c0.2-0.2,0.5-0.5,0.7-0.7c0.3-0.2,0.5-0.4,0.8-0.6c0,0,4.4-4.8,14.7-4.8c7.9,0,14.3,5.7,14.8,6.2
			C194.7,286.6,197.2,292.2,197.3,298.3z M90.4,302.8L90.4,302.8c0.3,11.5-8.8,21-20.3,21.3c-5.5,0.1-10.8-1.9-14.9-5.7
			c-4-3.8-6.3-9-6.5-14.5c0-2.1,0.2-4.1,0.8-6.1c1-3.6,2.9-6.8,5.6-9.4c3.8-3.6,8.7-5.7,13.9-5.8c0.3,0,0.6,0,0.9,0
			c0.1,0,0.1,0,0.2,0h0.3c0.3,0,0.5,0,0.8,0c0.2,0,0.5,0.1,0.7,0.1c0.7,0.1,1.3,0.2,2,0.3c0.3,0.1,0.6,0.1,0.9,0.2
			c0.3,0.1,0.7,0.2,1,0.3c0.2,0.1,0.4,0.1,0.7,0.2c0.2,0.1,0.4,0.1,0.7,0.2c0.1,0,0.2,0.1,0.3,0.1c0.2,0.1,0.4,0.2,0.6,0.3
			c0.2,0.1,0.4,0.2,0.6,0.3c0.5,0.2,0.9,0.4,1.4,0.7c0.4,0.3,0.9,0.5,1.3,0.8c0,0,0,0,0,0c0.9,0.6,1.9,1.4,2.7,2.2
			c0.2,0.2,0.4,0.4,0.5,0.5c0.2,0.2,0.3,0.4,0.5,0.6c0,0,0.1,0.1,0.2,0.2c0.3,0.3,0.6,0.7,0.8,1c0.6,0.8,1.2,1.7,1.7,2.6
			c0.3,0.5,0.6,1,0.8,1.6c0.3,0.5,0.5,1.1,0.7,1.7c0.1,0.4,0.3,0.8,0.4,1.2c0,0,0,0.1,0,0.1c0.1,0.4,0.2,0.8,0.3,1.3
			C90.2,300.3,90.4,301.5,90.4,302.8z M39.8,250.7l0-3.7l31.4,0.7l-0.2,2l-0.2,1.8h0L39.8,250.7z M100.7,231.5l-11.1-0.7
			c-4-5.4-10.2-21.4-12.2-26.9l8.8-3.1c1,3,3.1,8.6,5.5,14C94.8,221.3,98.6,228.8,100.7,231.5z M92.2,198.6l26.9-10
			c1.5,3.6,4.8,11.1,8.4,17v0l-0.5,7.5l-0.1,2.3l-20.7-0.6l-1,12.8c-1-2-2.7-5.3-4.5-8.9C98.4,214.2,94,203.2,92.2,198.6z
			 M84.7,230.5l-5.8-0.4c-0.8-1-2.5-3.6-5-8.2c-2.2-4.1-4-9.9-5.1-13.6v0c0-0.5,0-1,0-1.5l4.8-1.7C75.5,210.5,80.7,224.3,84.7,230.5
			z M69.1,225.6c0.1-0.8,0.1-3.7,0-7.1c0.7,1.7,1.4,3.4,2.2,4.9c1.6,2.9,2.9,5,3.8,6.5l-2.2-0.1l-0.6,6.3c-0.9,0-2.1,0.1-3.7,0.5
			c0,0-0.1,0-0.1,0h0c-1.4,0.5-3.9,7.8-8,0.8c-4.3-7.3,2.5-6.9,5.1-7.1C67.3,229.5,68.8,228.6,69.1,225.6z M75.6,249.8l1.4-15.4
			l32,2.1l1.3-17.2L131,220l0.2-2.3l77.6,2.9v0l-0.6,33.1L75.6,249.8z M131.5,213.3l0.4-6.3l23.1-6.6l54.1,2.5l-0.3,13.4
			L131.5,213.3z M154.8,195.9l-0.4,0l-21.2,6.1c-3.7-6.5-6.1-12.4-7.1-15.4l34.4-13.7c1,2.5,3.1,7.3,6.8,13.9c2.7,4.9,4.6,8,5.8,9.9
			L154.8,195.9z M242.6,340.7H5.6V281h28.5l-0.2,8.5l9.5-0.2c0.1,1.9,0.4,4.7,1.9,7.3c-0.7,2.4-1,4.9-0.9,7.4c0.2,6.7,3,13,7.8,17.6
			c4.7,4.5,10.9,6.9,17.4,6.9c0.2,0,0.4,0,0.7,0c13.9-0.4,24.9-12,24.6-25.8c0-1.1-0.1-2.1-0.3-3.2c1.5-1.3,3.4-3.6,3.8-6.5
			c0.2-1.6,0.4-3.1,0.5-4.5c2.7-1.5,11.8-6.2,19.7-6.2h0.2c7.7,0,17,3.1,20.3,4.4c0.3,2.9,1,7.6,2.5,10.2c1.5,2.5,4.4,4.5,6.4,5.5
			c1.8,13.4,13.3,23.5,26.9,23.5c0.2,0,0.4,0,0.7,0c7.1-0.2,13.9-3.2,18.8-8.3h17.3l0.6-36.6h30.5V340.7z M212.2,276.6l1.4-78
			l-19.2-0.9l48.1-23.5l0.1,102.5H212.2z M185,197.3l-3.9-0.2c-0.3-0.6-4.2-7.3-8.1-13.7c-1.4-2.4-5.4-11.3-5.8-12.7l65.5-26.7
			c1.4,2.4,3.8,7,5.8,11.7c1.4,3.3,5.1,12,5.5,12.9L185,197.3z M272,155.6c0.1,1.8-1.2,3.3-2.9,3.6c-0.8,0.1-1.7,0.2-2.4,0.3
			c-3.2,0.4-13.8,5-17.5,6.7c-0.5-1.6-4.2-11.5-5.1-13.5c-0.5-1.1-4.8-9-5.9-10.8l13.2-5.9c0.2-0.1,2.3-1.2,3.9-3.1
			c0.5-0.6,0.9-1.2,1.3-1.7c0,0,0,0,0,0c0.9-1.3,2.9-1.4,4-0.3C266.8,137.2,271.7,147.9,272,155.6z"/>
		<path id="XMLID_2441_" class="st0" d="M76.1,297.7c-1.2-1.1-2.5-1.9-4-2.3L72,292l-4.3,0.1l0.1,3.2c-4.4,0.9-7.6,4.8-7.5,9.4
			c0.1,4.6,3.6,8.4,8,9l0.1,2.8l4.3-0.1l-0.1-3.1c1.5-0.5,2.8-1.3,3.9-2.5c1.7-1.7,2.6-4,2.6-6.4v-0.3
			C78.9,301.7,77.9,299.4,76.1,297.7z M69.8,309.4h-0.1c-2.7,0-4.9-2.1-4.9-4.8c-0.1-2.7,2.1-5,4.8-5.1h0.1c1.3,0,2.5,0.5,3.4,1.4
			c0.9,0.9,1.5,2.1,1.5,3.5C74.6,307.1,72.5,309.3,69.8,309.4z"/>
		<path id="XMLID_2438_" class="st0" d="M181.4,294.1c-1.2-1.1-2.5-1.9-4-2.3l-0.1-3.4l-4.3,0.1l0.1,3.2c-1.9,0.4-3.6,1.3-4.9,2.7
			c-1.7,1.8-2.6,4.2-2.6,6.7c0.1,4.6,3.6,8.4,8,9l0.1,2.8l4.3-0.1l-0.1-3.1c1.5-0.5,2.8-1.3,3.9-2.5c1.7-1.8,2.6-4,2.6-6.5v-0.2
			C184.2,298.1,183.2,295.8,181.4,294.1z M175,305.8c-2.8,0-5-2.1-5.1-4.8c0-1.3,0.4-2.6,1.3-3.5c0.9-1,2.1-1.5,3.5-1.5h0.1
			c1.3,0,2.5,0.5,3.4,1.4c0.9,0.9,1.5,2.1,1.5,3.5C179.9,303.5,177.8,305.7,175,305.8z"/>
	</g>
	<path id="XMLID_2434_" class="st0" d="M76.1,117.9l0-0.7c0-1.1-0.2-2.1-0.5-3.1c-1.3-3.5-4.7-6.1-8.7-6.1c-4.5,0-8.3,3.2-9.1,7.5v0
		c-2.7,0-10.5,2.6-10.5,13.1v4.9h39.9v-2.9C87.1,123.6,83.1,117.9,76.1,117.9z M51.9,129.2v-0.5c0-5.1,2.4-8.9,6.8-8.9h3.4v-2.5
		c0-1.1,0.4-2.1,1-2.8c0.9-1.2,2.4-1.9,3.8-1.9c2.3,0,4.7,1.8,4.7,4.7v0.5l0,0v4.4l4.4,0c4.9,0,6.5,3.8,6.5,6.9H51.9z"/>
	<path id="XMLID_2431_" class="st0" d="M142.4,76.4l0-0.8c0-1.4-0.2-2.6-0.7-3.8c-1.6-4.3-5.7-7.5-10.6-7.5c-5.6,0-10.2,4-11.2,9.2
		v0c-3.3,0-13,3.2-13,16.1v6h49V92C155.9,83.3,151,76.4,142.4,76.4z M112.7,90.2v-0.6c0-6.2,3-10.9,8.3-10.9h4.2v-3.1
		c0-1.4,0.5-2.6,1.2-3.5c1.1-1.4,2.9-2.3,4.7-2.3c2.8,0,5.8,2.2,5.8,5.8v0.7l0,0v5.5l5.5,0c6,0,8,4.7,8,8.5H112.7z"/>
	<g id="XMLID_2427_">
		<path id="XMLID_2428_" class="st0" d="M180.6,110L180.6,110c0-0.9-0.2-1.8-0.5-2.6c-1.1-3-3.9-5-7.1-5c-3.5,0-6.6,2.4-7.4,5.8
			c-2.3,0.2-8.2,2.3-8.2,10.5v4.3h31.6v-2.8C189.1,114.3,185.7,110.2,180.6,110z M166.8,112.4h3.1v-2.5c0-0.7,0.2-1.3,0.6-1.9
			c0.6-0.8,1.6-1.2,2.5-1.2c1.5,0,3.1,1.2,3.1,3l0,0v4.4l3.9,0c3.1,0,4.3,2.1,4.5,4.3h-22.5C162.1,114.8,163.9,112.4,166.8,112.4z"
			/>
	</g>
	<path id="XMLID_2426_" class="st0" d="M62.3,84.7l-1.9,2.4c-1.2-1-3.3-1-4.5,0.5l-4.8,6.1l-1.9,2.4l-2.4-1.9l-6.1-4.8
		c-1.6-1.2-3.5-0.7-4.5,0.5l-2.4-1.9c2.1-2.7,6.1-3.2,8.8-1.1l6.1,4.8l4.8-6.1C55.6,83.1,59.5,82.6,62.3,84.7z"/>
	<g id="XMLID_2424_">
		<path id="XMLID_2425_" class="st0" d="M194,82.5l-1.8,2.3l-0.4-0.3c-0.3-0.3-0.8-0.4-1.2-0.3c-0.3,0-0.7,0.2-1,0.6l-4.5,5.8
			l-5.8-4.5c-0.8-0.6-1.7-0.3-2.2,0.3l-0.3,0.4l-2.3-1.8l0.3-0.4c1.5-1.9,4.3-2.3,6.3-0.8l3.5,2.7l2.7-3.5c1.5-1.9,4.3-2.3,6.3-0.7
			L194,82.5z"/>
	</g>
</g>
</svg>
