<?xml version="1.0" encoding="utf-8"?>
<!-- Generator: Adobe Illustrator 22.1.0, SVG Export Plug-In . SVG Version: 6.00 Build 0)  -->
<svg version="1.1" id="Layer_1" xmlns="http://www.w3.org/2000/svg" xmlns:xlink="http://www.w3.org/1999/xlink" x="0px" y="0px"
	 viewBox="0 0 279 337" style="enable-background:new 0 0 279 337;" xml:space="preserve">
<style type="text/css">
	.st0{fill:#E62D2C;}
</style>
<g id="XMLID_2344_">
	<g id="XMLID_2365_">
		<path id="XMLID_2417_" class="st0" d="M81.7,259.5l3.6,0.4C84.1,259.6,82.8,259.5,81.7,259.5z"/>
		<path id="XMLID_2413_" class="st0" d="M126,230.8c-6.1,0-11,5.5-11,12.3c0,3.1,1,5.9,2.7,8v7.2c0,4.5,3.6,8.1,8.1,8.1
			c4.5,0,8.1-3.6,8.1-8.1v-6.6c2-2.2,3.2-5.2,3.2-8.6C137.1,236.3,132.1,230.8,126,230.8z M119.4,243.1c0-4.3,3-7.9,6.6-7.9
			c3.7,0,6.6,3.5,6.6,7.9c0,4.3-3,7.9-6.6,7.9C122.4,250.9,119.4,247.4,119.4,243.1z M129.5,258.3c0,2-1.6,3.7-3.7,3.7
			c-2,0-3.7-1.6-3.7-3.7v-3.8c1.2,0.5,2.5,0.8,3.9,0.8c1.2,0,2.4-0.2,3.4-0.6V258.3z"/>
		<path id="XMLID_2410_" class="st0" d="M109.9,274.2L109.9,274.2l1,0.1L109.9,274.2z M81.7,259.5l3.6,0.4
			C84.1,259.6,82.8,259.5,81.7,259.5z"/>
		<path id="XMLID_2403_" class="st0" d="M42.5,306.2c-0.3,0-0.5,0-0.7,0c0.9,0.1,1.8,0.2,2.7,0.3C44,306.4,43.4,306.2,42.5,306.2z
			 M156.1,221.9L156.1,221.9C156.1,222,156.1,222,156.1,221.9c0.3,0.1,0.7,0,1,0H156.1z M42.5,306.2c-0.3,0-0.5,0-0.7,0
			c0.9,0.1,1.8,0.2,2.7,0.3C44,306.4,43.4,306.2,42.5,306.2z M156.1,221.9L156.1,221.9C156.1,222,156.1,222,156.1,221.9
			c0.3,0.1,0.7,0,1,0H156.1z M156.1,221.9L156.1,221.9C156.1,222,156.1,222,156.1,221.9c0.3,0.1,0.7,0,1,0H156.1z M42.5,306.2
			c-0.3,0-0.5,0-0.7,0c0.9,0.1,1.8,0.2,2.7,0.3C44,306.4,43.4,306.2,42.5,306.2z"/>
		<path id="XMLID_2370_" class="st0" d="M210,332.7v4.4h66.3l0-48.7c0,0,0,0,0,0V288l0,0l0-162.3c0-33.7-13.4-64.9-37.8-87.8
			c-19.9-18.7-45.9-30.5-72.7-33.2c-2.6-0.3-5.2-0.4-7.8-0.5c-1.3,0-2.6-0.1-4-0.1c-2.3,0-4.6,0.1-6.8,0.2c-2.6,0.1-5.3,0.4-7.9,0.7
			c-5.8,0.7-11.5,1.8-17.1,3.3c-0.1,0-0.2,0-0.3,0.1c-15.2,4-29.6,10.9-42.3,20.2c-0.4,0.3-0.8,0.6-1.2,0.9c-0.3,0.2-0.7,0.5-1,0.8
			c-3.2,2.4-6.3,5-9.2,7.7c-9.9,9.2-17.9,19.7-24.1,31.2c0,0,0,0,0,0c-0.3,0.7-0.7,1.3-1,2c-0.4,0.7-0.7,1.4-1,2.1
			c-0.2,0.4-0.3,0.7-0.5,1.1c-0.1,0.1-0.1,0.2-0.2,0.4c-0.1,0.2-0.2,0.4-0.3,0.7c-0.1,0.2-0.2,0.5-0.3,0.8c-0.1,0.2-0.2,0.4-0.2,0.6
			c-0.1,0.3-0.2,0.6-0.4,0.8c-0.1,0.1-0.1,0.3-0.2,0.4c-0.2,0.4-0.3,0.8-0.5,1.2c0,0,0,0.1,0,0.1c-0.2,0.4-0.3,0.8-0.5,1.3
			c0,0,0,0.1-0.1,0.2c-0.4,0.9-0.7,1.8-1,2.6c0,0.1-0.1,0.1-0.1,0.2c-0.1,0.4-0.3,0.8-0.4,1.1c0,0.1-0.1,0.2-0.1,0.2
			c-0.2,0.5-0.3,0.9-0.5,1.4c-0.2,0.5-0.3,1-0.5,1.4c-0.2,0.5-0.3,0.9-0.4,1.4c-0.1,0.5-0.3,0.9-0.4,1.4
			c-3.4,11.3-5.2,23.1-5.2,35.3v96.4c-12.1,2.1-17.3,5.3-18.8,6.4c-4.5,1-7.9,5.7-7.9,11.4c0,3,1,5.8,2.6,7.8
			c-1.5,2.8-3.6,9.1-0.9,21c-0.6,0.5-1.2,1.1-1.7,1.9c-1.6,2.8-1.2,6.7,1.2,11.3c0.5,1.8,2.9,5.6,14.6,5.6h2c0.7,2.9,3,9.3,8.9,13.9
			l0,35.7h209.6v-4.4H34.7l0-28.6c0,0,0,0,0,0c0.3,0.2,0.7,0.3,1,0.5c1.8,0.7,3.8,1.3,6.1,1.7c0.2,0,0.5,0,0.7,0
			c0.8,0,1.4,0.1,2,0.3c0.8,0.1,1.6,0.1,2.5,0.1c8,0,13.6-2,17.4-4.7c5.8-4,7.7-9.3,8.3-11.3l3.2,0.1c0.3,0.4,0.6,0.8,1,1.1
			c1.6,1.6,3.7,2.6,5.9,2.6c0.4,0,0.8,0,1.2-0.1c2.1-0.3,4.1-1.5,5.3-3.2l39.9,1.8l0.2,0l0.7-0.1c0.4,2.1,1.7,7.2,5.3,11.9
			c0.9,1.2,1.9,2.3,3.1,3.4c0.8,0.8,1.7,1.5,2.7,2.2c3.1,2.1,7.1,3.8,12.1,4.4c0,0,0.1,0,0.1,0c1.3,0.2,2.7,0.2,4.2,0.2
			c4.7,0,8.6-0.9,11.9-2.5c1.8-0.8,3.5-1.9,4.9-3h0c2.9-2.3,5.1-5,6.8-7.7c3-4.8,4.4-9.6,4.9-11.8l12.8-3.3l17.3-4.4l39.2-10
			c0,0.1,0,0.1,0,0.2c0.1,2.2,0.5,6.1,1.9,9.8c0.6,1.6,1.3,3.1,2.2,4.4c1.5,2.1,3.5,3.8,6.2,4.5c1.5,0.4,2.8,0.5,4,0.5
			c0.7,0,1.3-0.1,1.9-0.2c0.1,0,0.1,0,0.2,0v41.1H210z M271.8,275.1c-0.1-0.1-0.1-0.2-0.2-0.3c-1.5-2.3-2.3-6.3-2.5-9v0
			c0.7-1.3,1.1-2.7,1.1-4.4c0-4,0.6-6.9,1.4-9c0.1-0.2,0.1-0.3,0.2-0.5V275.1z M34.7,125.7c0-36.8,16-66.5,39.4-86.8
			c17.6-15.3,39.3-25.2,61.5-28.8c1.8-0.3,3.7-0.6,5.5-0.8c4.3-0.5,8.6-0.7,12.9-0.7c3.4,0,6.8,0.2,10.2,0.5
			c53.5,5,107.6,48.7,107.6,116.7v86.8c-0.1-0.1-0.1-0.1-0.2-0.2c-5.8-5.3-14.8-6.2-15.3-6.2h-17.8c0.1-2.8-0.1-8-3.1-11.4
			c-0.3-0.3-0.6-0.6-0.9-0.9c-1.7-1.4-3.9-2-6.4-2h-26.1l0.1-0.6c0.4-3.1-0.4-6.1-2.4-8.5c-1.9-2.4-4.7-3.9-7.8-4.2l-10.1-0.8
			l-4.9-0.4l-28.2-2.4l-0.3,0l-20.6,2.9l-4.5,0.6l-7,1c-3.6,0.5-6.8,2.7-8.6,5.9l-2.1,4.1l-2.3,4.4l-4.4,8.5
			c-0.6,0.1-1.3,0.2-1.9,0.4c-8,0.1-14.6,1.2-20.1,2.6c-1.7,0.4-3.2,0.9-4.7,1.5c-11.7,4.3-17,10.6-18.8,13.3c-0.8,0-1.7,0-2.5,0.1
			c1.4-1.3,2.3-3.2,2.3-5.4c0-4-3.1-7.2-6.9-7.2c-3.8,0-6.9,3.2-6.9,7.2c0,2.4,1.1,4.5,2.8,5.8c-2.9,0.2-5.6,0.5-8,0.9c0,0,0,0,0,0
			V125.7z M209.9,238l14.9-0.7l-0.2-3.5l0-0.9l-7.9,0.4l-7.6,0.4c-0.6-2.9-1.2-5.3-1.9-7.3c-0.6-1.8-1.2-3.2-1.9-4.4
			c-0.3-0.6-0.6-1.1-0.9-1.6l6.4-0.1l4.4-0.1l24.9-0.5c0.4,0.6,0.9,1.4,1.4,2.3c0.4,0.7,0.7,1.5,1.1,2.4c0.1,0.2,0.2,0.4,0.3,0.7
			c0.1,0.4,0.2,0.8,0.3,1.3c1.4,8.2-0.3,28.8-1.4,38.3l-32.2,7.1l1.8-18v-0.1C211.1,247.4,210.6,242.3,209.9,238z M235.4,210.9
			l0.6,4.3l-20.8,0.4l-4.4,0.1l-10,0.2l-0.5-5H235.4z M200.2,206.1l1.3-9.9h26.6c1.7,0,3,0.3,3.9,1.4c1.9,2.2,2.1,6.1,2,8.5H200.2z
			 M242,215.1c-0.7-0.6-1.3-1-1.8-1.3l-0.4-2.8h16.2c0.7,0,6.7,0.6,11.1,3.6l-15,0.3l-4.4,0.1L242,215.1z M150.4,179.4l26.8,2.2
			l4.8,0.4l9.6,0.8c1.9,0.1,3.6,1,4.7,2.5c1.2,1.5,1.7,3.3,1.4,5.2l-2.1,15.6c-2.6-0.4-7.2-1.2-12.9-2c-1.5-0.2-3-0.4-4.7-0.7
			c-11.4-1.6-25.6-3.2-36.5-3.6L150.4,179.4z M136.9,199.9h-0.4c-3.3,0-6.4,0.1-9.3,0.2h0c-1.5,0.1-3,0.1-4.4,0.2h0
			c-0.6,0-1.1,0.1-1.7,0.1h-0.1c-6,0.1-11.4,0.5-16.3,1.1l3.9-7.7l2.3-4.4l1-2c1.1-2,3.1-3.3,5.3-3.7l6.2-0.9l4.5-0.6l17.7-2.5
			L136.9,199.9z M49.2,214.7c0,1.6-1.1,2.8-2.5,2.8s-2.5-1.3-2.5-2.8c0-1.5,1.1-2.8,2.5-2.8S49.2,213.2,49.2,214.7z M30.3,226.6
			c1.4-0.3,2.8-0.5,4.4-0.7c5.4-0.8,12.2-1.3,20.5-1.4l1.3,0l0.6-1.2c0.1-0.1,3.7-6.7,14.9-11.4c1.4-0.6,3-1.2,4.7-1.7
			c0.4-0.1,0.9-0.3,1.3-0.4c-0.5,0.3-1,0.6-1.4,0.9c-1.9,1.3-3.6,2.6-5,3.9c-2.6,2.5-4.3,5-5.5,7.3c-1.4,2.7-1.9,5-2.2,6.5
			c-1.2,0.4-2.3,1.1-3.1,2c-0.7,0.7-1.2,1.6-1.5,2.6h-5.6v4.4h5.5c0.2,0.6,0.4,1.1,0.7,1.6c0.9,1.6,2.4,2.8,4.1,3.3
			c0.6,0.2,1.2,0.3,1.8,0.3c3.1,0,5.7-2.2,6.6-5.2h6.4V233h-6.4c-0.6-2-2.1-3.6-3.9-4.4c0.2-0.6,0.4-1.4,0.8-2.3
			c1-2.4,2.9-5.6,6.5-8.9c4.5-4,11.6-8,22.9-10.4c6.2-1.3,13.7-2.2,22.7-2.3c0.4,0,0.8-0.1,1.2-0.1h0c0.2,0,0.3,0,0.5,0
			c1.3-0.1,2.6-0.1,3.9-0.2h0c3-0.1,6.1-0.2,9.5-0.2c11.2-0.1,28.5,1.9,41.8,3.8c1.6,0.2,3.1,0.4,4.6,0.6c5.9,0.8,10.6,1.6,12.8,2
			l0.3,5.4l0,0.3c-0.8,0-1.6,0-2.4-0.1c-3.6-0.1-7.1-0.1-10.5-0.1c-1.5,0-3,0-4.5,0.1c-6.8,0.1-12.9,0.5-18.6,1
			c0.7-1.1,1.1-2.5,1.1-3.9c0-4-3.1-7.2-6.9-7.2c-3.8,0-6.9,3.2-6.9,7.2c0,2,0.8,3.8,2,5.1c-6.7,0.9-12.6,2.1-17.7,3.5
			c-4.2,1.1-7.8,2.4-11,3.7c-1.6,0.6-3.1,1.3-4.4,2c-1.6,0.8-3.1,1.6-4.4,2.4c-3.9,2.4-6.8,4.9-9,7.3c-4.3,4.8-5.6,9.4-5.9,12.3
			l-32.5-4.8l-0.6,0.1l-4.5,0.6l-24.6,3.1l-4.4,0.6l-5.3,0.7L16.6,267l-6.1-0.2c-0.3,0-0.7,0-1.1,0.1c-0.6-3-0.9-5.5-1-7.6
			c1.2,1.8,3.2,2.9,5.5,2.9c3.7,0,6.6-3,6.6-6.6v-8.4c1.4-2,2.2-4.6,2.2-7.3c0-4.2-1.9-7.9-4.7-9.9
			C20.6,228.9,24.5,227.7,30.3,226.6z M68.4,235.3c0,1.6-1.1,2.8-2.5,2.8c-0.5,0-0.9-0.2-1.3-0.4c-0.7-0.5-1.1-1.4-1.1-2.4
			c0-1.2,0.7-2.3,1.7-2.7c0.2-0.1,0.5-0.2,0.8-0.2C67.3,232.5,68.4,233.8,68.4,235.3z M156.7,213.2c0,1.6-1.1,2.8-2.5,2.8
			c-1.4,0-2.5-1.3-2.5-2.8c0-1.5,1.1-2.8,2.5-2.8C155.6,210.4,156.7,211.7,156.7,213.2z M97.4,268.8c-0.3-4.1-4.5-5.7-7.9-6
			c-0.4-0.7-0.9-1.2-1.6-1.7c-0.8-0.6-1.7-0.9-2.7-1.2l19.1,2l3.4,7.7L97.4,268.8z M107.4,257.8L63,253.1l-1-0.1l-0.2,0l-3.3,0.3
			l-23.8,2.2l-4.4,0.4l-3.1,0.3l-4.6,10.5h-0.9l6.3-12.9l2.4-0.3l4.4-0.6l24.1-3.1l4.5-0.6l1.1-0.1l45.2,6.7l6.8,13.9h-3.6
			L107.4,257.8z M85.3,259.9l-3.6-0.4C82.8,259.5,84.1,259.6,85.3,259.9z M76.5,260.1v8.4l-15.1-0.7l-4.4-0.2l-7.5-0.3h0l-4.4-3.4
			c0-2.7-2.8-4.2-4.5-4.3l17.5-1.7l3.7-0.4l0.8,0.1l19,1.9c-1.6,0-2.9,0.2-3.2,0.3L76.5,260.1z M38.1,275.6
			c-1.2,4.9-0.3,8.5,0.8,10.9c0.4,0.8,0.8,1.4,1.2,2c-0.4,0.5-0.9,0.8-1.4,0.9c-0.1,0-0.1,0-0.2,0c-1.3,0.2-2.6-0.1-3.8-1.5
			c-0.1-0.1-0.2-0.2-0.3-0.3c-5.9-8-0.4-16.1-0.2-16.4l0.4-0.6v-7.5h0c4.6-0.1,6.2,1.2,6.2,3.2l1,0.7c-0.8,0.5-1.4,1.1-1.8,1.6
			C38,271.2,38,274.3,38.1,275.6z M30.2,260.5v6.8l-3.1-0.1l2.9-6.7L30.2,260.5z M11.7,255.6v-4.3c0.5,0.1,1,0.1,1.5,0.1
			c1,0,2-0.2,2.9-0.6v4.7c0,1.2-1,2.2-2.2,2.2C12.6,257.8,11.7,256.8,11.7,255.6z M13.1,232.8c2.8,0,5.2,3.3,5.2,7.1
			c0,3.9-2.4,7.1-5.2,7.1c-2.8,0-5.2-3.3-5.2-7.1C8,236,10.3,232.8,13.1,232.8z M19.4,283.1c-8.1,0-10.1-2-10.4-2.4L8.8,280
			c-1.7-3.3-2.3-5.8-1.5-7.2c0.8-1.4,3.1-1.6,3.1-1.6l18.5,0.5c-1.3,3-2.1,7.1-1.3,11.3H19.4z M47,302.2c-0.5,0-1.1,0-1.6,0
			c-1.2-0.1-2.4-0.2-3.5-0.4c0,0,0,0-0.1,0c-1.6-0.3-3-0.7-4.3-1.2c-1.1-0.4-2-0.9-2.9-1.4c-1.8-1.1-3.3-2.4-4.4-3.7
			c-2.5-2.8-3.7-5.9-4.3-7.9h3.3c0.3,0.6,0.6,1.2,1,1.7c0,0,0,0,0,0c0.2,0.4,0.5,0.8,0.8,1.2c0.2,0.2,0.4,0.5,0.5,0.7l0.2,0.2
			c0.2,0.2,1.3,1.1,2.8,1.8c0.9,0.4,2.1,0.7,3.3,0.7c0.1,0,0.1,0,0.2,0c0.3,0,0.6,0,1-0.1c1-0.2,2.4-0.7,3.7-1.9
			c0.6-0.6,1.3-1.4,1.8-2.4l23.5,1C67,293.8,62.4,302.2,47,302.2z M73.7,286.3L43.5,285l-0.4,0c-0.9-1.6-1.7-4.5-0.6-8.7l0.1-0.4
			l-0.1-0.4c0,0-0.3-2.4,0.9-3.9l32.2,1.4c-0.3,0.7-0.7,1.5-0.9,2.1C72.9,279.7,72.8,283.4,73.7,286.3z M86.2,273.6
			c-0.3,0.4-0.6,0.9-0.8,1.4c-1.4,3.8-0.3,10.5,0.4,13.6c-0.6,0.8-1.4,1.3-2.4,1.4c-1.2,0.2-2.4-0.2-3.3-1.1
			c-3.2-3.4-3.4-8-0.7-13.9c0.3-0.7,0.7-1.5,1.2-2.3l0.3-0.5V264c1.7-0.1,3.6,0.1,4.5,0.7c0.3,0.2,0.4,0.4,0.4,0.6l0.3,1.8l1.9,0
			c1,0,4.7,0.4,5,2c-0.1,0.3-0.3,0.9-0.7,1.5c-0.5,0.7-1.4,1.4-2.8,1.4C88.2,272,87,272.6,86.2,273.6z M129.3,288.6L90,286.9
			c-0.9-4.7-1.1-9.3-0.4-10.4c1.8,0,3.3-0.6,4.4-1.4c0.8-0.5,1.4-1.2,1.9-1.9l11.5,0.8l2.5,0.2l1,0.1l20.1,1.5l18.9-2
			c0,0,0.9,0,1.8,0.8c1.1,1,1.6,3,1.6,5.8c0,0.8-0.1,1.5-0.2,2.2c-0.2,1.4-0.7,2.4-1.4,3c-1,0.9-2.4,0.7-2.4,0.7l-0.3-0.1l-6.1,0.8
			L129.3,288.6z M154.9,271.5c0.1-0.5,0.4-1.5,0.9-2.9l0.1,0.4c0,0,5.4-1.5,9.3,1.2c2.6,1.8,4.1,5.4,4.3,10.4c0,0.6,0.1,1.2,0.1,1.8
			c0,1.6-0.1,3.1-0.3,4.4c-0.8,5.7-3.3,9.2-7.2,9.7c-3.7,0.5-6.6,0-8.6-1.7c-1.3-1.1-2.1-2.4-2.3-4.4c1-0.2,2.2-0.6,3.3-1.6
			c0.7-0.5,1.2-1.2,1.7-2c0.7-1.2,1.2-2.7,1.4-4.4c0.1-0.7,0.1-1.4,0.1-2.2C157.7,276.4,156.7,273.4,154.9,271.5z M182.2,288.3
			c-0.1,0.6-1.8,10.5-9.1,17c-1.4,1.2-3,2.3-4.8,3.2c-2.9,1.4-6.4,2.3-10.6,2.3c-6.6,0-11.4-1.9-14.8-4.5h0
			c-1.5-1.1-2.7-2.4-3.7-3.7c-3.1-4-4.2-8.3-4.6-10.2l12.2-1.6c0.3,3.3,1.6,5.4,3.8,7.4c2.3,2.1,5.5,2.8,9.2,2.8
			c0.9,0,1.8-0.1,2.8-0.2c6.1-0.8,10.1-5.8,11.1-13.9c0.2-1.4,0.3-2.9,0.3-4.4c0-0.7,0-1.4-0.1-2.2c-0.3-6.4-2.4-11-6.2-13.7
			c-3.5-2.4-7.5-2.6-10.2-2.3c1.3-3.1,3.2-6.6,5.7-9.5c5.1,0.4,9.7,2.3,12.8,5.8c5.4,6.1,6.4,15.7,6.5,21.8c0,1.9-0.1,3.4-0.1,4.4
			C182.2,287.7,182.2,288.2,182.2,288.3z M167.6,251c1.7-0.9,3.5-1.4,5.3-1.4c3,0,5.5,0.9,7.4,2.9c4.5,4.6,4.4,13.2,4.4,13.3
			l-0.1,1.9c-1.1-3.5-2.9-7-5.4-9.8C176.3,254.3,172.3,252,167.6,251z M251.8,268.8l-53.3,13.7l-10,2.6l0.1-2.6l0.6-16.6
			c0-0.4,0.1-10.5-5.7-16.5c-2.7-2.8-6.3-4.2-10.5-4.2c-4.2,0-8.1,1.7-11.6,5.2c-0.2,0.2-0.5,0.5-0.7,0.7c-5.7,6-8.7,14.9-9.7,18.3
			c-0.8-0.1-1.3-0.1-1.4-0.1l-18.6,2l-9.2-0.7l-9.1-18.7l-11.3-1.7c0.2-2.2,1.2-6,5.1-10.3c1.9-2.1,4.4-4.2,7.8-6.3
			c3-1.8,6.6-3.6,11-5.2c2.1-0.8,4.4-1.5,6.9-2.2c5.2-1.4,11.2-2.7,18.2-3.6c1.9-0.3,3.9-0.5,5.9-0.7c0,0,0,0,0,0v-0.1h1
			c6.5-0.7,13.7-1.1,21.8-1.2c1.5,0,3,0,4.5-0.1c4.1,0,8.3,0,12.8,0.1l2.1,0c0.2,0.1,0.8,0.3,1.5,1.1c0.8,0.8,1.7,2.2,2.7,4.4
			c0.8,1.8,1.5,4.3,2.2,7.5l-17.4,0.9l0.2,4.4l17.9-0.9c0.6,4.1,0.9,9.1,1,15.4l-1.9,23.7l41.3-9.1l0.2-1.6
			c0.2-1.2,3.4-28.6,1.7-40.4c-0.1-0.9-0.3-1.8-0.5-2.5c-0.1-0.5-0.3-0.9-0.4-1.2c-0.1-0.3-0.2-0.5-0.3-0.7
			c-0.4-0.9-0.8-1.7-1.2-2.4l2.5-0.1l4.4-0.1l6.4-0.1c-0.1,0.1-0.1,0.2-0.2,0.2C249.2,230.1,251.2,260.7,251.8,268.8z M256.2,268.1
			c-1-11.7-1.5-37.5,5.5-45.8c1.3-1.6,2.8-2.4,4.6-2.5c1.8-0.1,3.6-0.1,5.4,0.1c0.1,0,0.1,0,0.2,0v24.8c-0.1,0.1-0.1,0.1-0.2,0.2
			c-2.4,2-5.9,6.6-5.9,16.6C265.7,266.2,259.5,267.7,256.2,268.1z M271.6,287c-0.8,0.5-2.1,0.7-4.9,0c-0.2,0-0.3-0.1-0.5-0.1
			c-1.9-0.6-3.2-2.3-4.2-4.4c-1.5-3.4-2.1-7.7-2.2-10.5c1.8-0.4,3.7-1.1,5.3-2.1c0.7,3.9,2.5,9.1,6.4,10.7c0.1,0,0.1,0.1,0.2,0.1
			v6.3C271.7,286.9,271.7,287,271.6,287z"/>
		<path id="XMLID_2367_" class="st0" d="M81.7,259.5l3.6,0.4C84.1,259.6,82.8,259.5,81.7,259.5z M276.2,288v0.4c0,0,0,0,0,0
			L276.2,288L276.2,288z"/>
		<path id="XMLID_2366_" class="st0" d="M276.4,288.2c-0.1,0.1-0.1,0.2-0.2,0.3c0,0,0,0,0,0V288l0,0L276.4,288.2z"/>
	</g>
	<path id="XMLID_2362_" class="st0" d="M209.2,119.8l0-0.7c0-1.1-0.2-2.1-0.5-3.1c-1.3-3.5-4.7-6.1-8.7-6.1c-4.5,0-8.3,3.2-9.1,7.5
		v0c-2.7,0-10.5,2.6-10.5,13.1v4.9h39.9v-2.9C220.2,125.5,216.2,119.8,209.2,119.8z M185,131v-0.5c0-5.1,2.4-8.9,6.8-8.9h3.4v-2.5
		c0-1.1,0.4-2.1,1-2.8c0.9-1.2,2.4-1.9,3.8-1.9c2.3,0,4.7,1.8,4.7,4.7v0.5l0,0v4.4l4.4,0c4.9,0,6.5,3.8,6.5,6.9H185z"/>
	<g id="XMLID_2358_">
		<path id="XMLID_2359_" class="st0" d="M161,54.3L161,54.3c0-0.9-0.1-1.6-0.4-2.4c-1-2.7-3.6-4.5-6.4-4.5c-3.2,0-6,2.2-6.7,5.3
			c-2,0.2-7.4,2.1-7.4,9.6v3.9h28.7v-2.5C168.6,58.2,165.5,54.5,161,54.3z M148.4,56.4h2.9v-2.2c0-0.6,0.2-1.2,0.6-1.7
			c0.5-0.7,1.4-1.1,2.3-1.1c1.3,0,2.8,1.1,2.8,2.8l0,0v4l3.6,0c2.8,0,3.9,2,4.1,3.9h-20.5C144.1,58.6,145.8,56.4,148.4,56.4z"/>
	</g>
	<g id="XMLID_2354_">
		<path id="XMLID_2355_" class="st0" d="M246.1,101.6L246.1,101.6c0-0.9-0.2-1.8-0.5-2.6c-1.1-3-3.9-5-7.1-5c-3.5,0-6.6,2.4-7.4,5.8
			c-2.3,0.2-8.2,2.3-8.2,10.5v4.3h31.6v-2.8C254.5,106,251.1,101.9,246.1,101.6z M232.2,104h3.1v-2.5c0-0.7,0.2-1.3,0.6-1.9
			c0.6-0.8,1.6-1.2,2.5-1.2c1.5,0,3.1,1.2,3.1,3l0,0v4.4l3.9,0c3.1,0,4.3,2.1,4.5,4.3h-22.5C227.5,106.4,229.4,104,232.2,104z"/>
	</g>
	<path id="XMLID_2353_" class="st0" d="M162.3,100.4l-1.9,2.4c-1.2-1-3.3-1-4.5,0.5l-4.8,6.1l-1.9,2.4l-2.4-1.9l-6.1-4.8
		c-1.6-1.2-3.5-0.7-4.5,0.5l-2.4-1.9c2.1-2.7,6.1-3.2,8.8-1.1l6.1,4.8l4.8-6.1C155.6,98.7,159.5,98.3,162.3,100.4z"/>
	<path id="XMLID_2352_" class="st0" d="M214.4,74.5l-1.9,2.4c-1.2-1-3.3-1-4.5,0.5l-4.8,6.1l-1.9,2.4l-2.4-1.9l-6.1-4.8
		c-1.6-1.2-3.5-0.7-4.5,0.5l-2.4-1.9c2.1-2.7,6.1-3.2,8.8-1.1l6.1,4.8l4.8-6.1C207.7,72.8,211.7,72.4,214.4,74.5z"/>
	<g id="XMLID_2346_">
		<path id="XMLID_2347_" class="st0" d="M104.6,107.1V87.6c0-0.3,0-0.7,0-1c-0.5-9.9-7.5-16.2-18.5-16.4h-0.5
			c-8.7,0.3-18,8.1-18,20.2v120.5H71V107.4c0.6,0.5,1.5,0.8,3.2,0.8c1.9,0,3.5-1,4.2-2.6c0.5-1.1,0.5-2.5,0-4l-0.2-0.5l-2.9,0.9
			l0.2,0.7c0.1,0.6,0.3,1.1,0.1,1.4c-0.1,0.3-0.3,0.7-2,0.7c-1.7,0-2.6-1.2-2.6-3.2c0-1.4,1-2.9,3.4-2.9c2,0,2.8,0.7,3,0.8
			c2.6,3,6.7,4.8,11.3,4.8c5.3,0,9.7-2,12.5-5.7v8.5c-4.4,0.8-5.9,4.9-6.1,7l-0.2,1.9h2.2v4.4c0,3.2,2.6,5.8,5.9,5.8
			c3.2,0,5.8-2.6,5.8-5.8V116h2v-1.7C110.7,111.2,108.8,107.9,104.6,107.1z M88.6,101c-3.5,0-6.7-1.3-8.6-3.5l-0.2-0.2
			c-1.4-1.7-2.1-4-2.1-6.7c0-5.5,4.8-9.4,9-9.4c3.7,0,6.8,3,6.8,6.8c0,2.9-2.3,5.1-4.3,5.1c-3.8,0-3.8-1.7-3.8-2.6
			c0-1.1,1-1.9,2.3-1.9h0.5v-3.4h-0.5c-3.2,0-5.8,2.3-5.8,5.3c0,1.8,0.7,6,7.2,6c4.1,0,7.7-4,7.7-8.5c0-5.6-4.6-10.2-10.2-10.2
			c-6,0-12.4,5.1-12.4,12.8c0,1.7,0.2,3.3,0.7,4.8c-0.2,0-0.4,0-0.6,0c-1.3,0-2.4,0.3-3.4,0.8v-5.8c0-9.9,7.7-16.7,14.9-16.8
			c9.6,0.1,15.3,5.3,15.3,14C101.2,95.9,96.4,101,88.6,101z M102.9,122.7c-1.1,0-2.3-0.8-2.3-2.2v-4.3h4.5v4.3
			C105.1,121.8,104,122.7,102.9,122.7z M99,112.7c0.6-1.1,1.7-2.3,3.8-2.3c2.6,0,3.6,1.2,4.1,2.3H99z"/>
	</g>
	
		<rect id="XMLID_2345_" x="150.8" y="190.2" transform="matrix(2.808756e-10 1 -1 2.808756e-10 465.6526 159.9415)" class="st0" width="4.2" height="245.2"/>
</g>
</svg>
