<?xml version="1.0" encoding="utf-8"?>
<!-- Generator: Adobe Illustrator 22.1.0, SVG Export Plug-In . SVG Version: 6.00 Build 0)  -->
<svg version="1.1" id="Layer_1" xmlns="http://www.w3.org/2000/svg" xmlns:xlink="http://www.w3.org/1999/xlink" x="0px" y="0px"
	 viewBox="0 0 249 343" style="enable-background:new 0 0 249 343;" xml:space="preserve">
<style type="text/css">
	.st0{fill:#E62D2C;}
</style>
<g id="XMLID_2243_">
	<g id="XMLID_2255_">
		<g id="XMLID_2256_">
			<polygon id="XMLID_2296_" class="st0" points="96.8,51.5 96.8,51.5 95.7,51.3 95.7,51.2 			"/>
			<polygon id="XMLID_2295_" class="st0" points="150.8,51.3 150.8,51.3 149.7,51.5 149.7,51.5 			"/>
			<g id="XMLID_2257_">
				<path id="XMLID_2258_" class="st0" d="M161.2,15.2c-1-0.3-16.3-5.3-36-5.7V0.3h-4.4v9.2c-17.6,0.4-35.5,6.9-36.2,7.1
					C34.2,33.6,1.7,78.7,1.7,131.5V343h245.6V131.5C247.3,77.9,212.7,31.2,161.2,15.2z M132.2,24.3c3.9,0,7.1,3.2,7.1,7.1v6.9
					l-16.6,4.4l-16.2-4.4v-6.9c0-3.9,3.2-7.1,7.1-7.1H132.2z M128.7,298.3c1.5-1.3,2.4-3.2,2.4-5.4c0-4-3.3-7.3-7.3-7.3
					c-4,0-7.3,3.3-7.3,7.3c0,2,0.8,3.8,2.1,5.1c-4.7,0.6-7.9,4.6-7.9,10.2v5.7l-20.2-2.4l1.6-36.7l30.3,3.6l31.9-3.7l1.5,36.7
					l-19.7,2.3v-5.5C136.2,303.5,133.1,299.5,128.7,298.3z M118.7,313h-2.3c-0.4,0-0.8,0-1.2,0.1v-4.9c0-2.7,1.3-5.9,4.8-5.9h5.9
					c3.2,0,5.8,2.6,5.8,5.9v18.7c-0.8-0.4-1.7-0.6-2.6-0.8v-2.6C129.2,317.7,124.5,313,118.7,313z M121,292.9c0-1.6,1.3-2.9,2.9-2.9
					c1.6,0,2.9,1.3,2.9,2.9s-1.3,2.9-2.9,2.9C122.3,295.8,121,294.5,121,292.9z M125.2,225.8V179l25.1-2.7l1.9,46.3L125.2,225.8z
					 M152.5,227l1.8,43.3l-29,3.3v-43.4L152.5,227z M120.8,46.7v5.6l-19.1-4.3l0.3-6.3L120.8,46.7z M120.8,56.9v29.1L100.2,84
					l1.3-31.4L120.8,56.9z M120.8,90.4v39.8l-22.5-2.6l1.7-39.1L120.8,90.4z M120.8,134.6v40.1L96.5,172l1.7-40L120.8,134.6z
					 M94.3,222.7l2-46.3l24.5,2.8v46.7L94.3,222.7z M120.8,230.3v43.4l-28.5-3.4l1.8-43.3L120.8,230.3z M96.8,51.5l-0.6,14.6
					l-8.3-1.3l0.9-15.2L96.8,51.5L96.8,51.5z M96,70.6l-0.5,13l-2.8-0.3l-0.4,4.4l3.1,0.3l-0.7,17l-9-1.4l2.1-34.3L96,70.6z
					 M94.4,109.5L93.7,127l-4.1-0.5l-0.5,4.4l4.4,0.5l-0.6,15.1l-9.8-1.2l2.2-37.3L94.4,109.5z M92.7,150.9l-0.9,20.5l-4.3-0.5
					l-0.5,4.4l4.6,0.5l-0.7,17.9l-10.7-1.5l2.6-42.5L92.7,150.9z M154.8,175.9l4.7-0.5L159,171l-4.4,0.5l-0.9-21.8l10-1.2l2.5,42.5
					l-10.8,1.5L154.8,175.9z M153.5,145.2l-0.6-13.8l4.5-0.5l-0.5-4.4l-4.2,0.5l-0.8-18.8l9.2-1.4l2.2,37.2L153.5,145.2z
					 M151.9,103.7L151.2,88l3.1-0.3l-0.4-4.4l-2.9,0.3l-0.6-14.2l8.5-1.3l2,34.3L151.9,103.7z M150.3,64.9l-0.5-13.3v0l8.1-1.8
					l0.8,13.9L150.3,64.9z M150.2,171.9l-25,2.7v-40.1l23.3-2.5L150.2,171.9z M125.2,130V90.2l21.6-1.9l1.6,39.1L125.2,130z
					 M125.2,85.8V57l20.1-4.5l1.3,31.4L125.2,85.8z M125.2,52.4v-5.7l20-5.1l0.3,6.3L125.2,52.4z M69.9,291L69.9,291L67,338.6H6.1
					V131.5C6.1,80.7,37.5,37.2,86,20.8c0.2-0.1,18-6.4,34.8-6.9v6h-7.1c-6.4,0-11.5,5.2-11.5,11.5v5.8l-4.4-1.1l-0.5,11l-12.6-2.8
					l-1.2,20l-3.8-0.6L79.1,68l4.2,0.6L81.2,103l-3.6-0.5l-0.7,4.4l4,0.6l-2.3,37.4l-4.1-0.5l-0.5,4.4l4.4,0.5l-2.6,42.4l-4.9-0.7
					l-0.6,4.4l5.3,0.7l-3.1,50.8l-4.6-0.6l-0.5,4.4l4.9,0.6l-2.1,35.3l-4.5-0.5l-0.5,4.4L69.9,291z M86,310.9l-4.1-0.5l-0.5,4.4
					l4.4,0.5l-0.9,22.9H71.5l2.8-46.7l12.5,1.4L86,310.9z M87.7,269.8l-3.9-0.5l-0.5,4.4l4.3,0.5L87,288.4L74.5,287l2.1-35.3
					l11.8,1.5L87.7,269.8z M76.9,247.4l3-50.7l10.8,1.5l-1,23.9l-3.5-0.4l-0.5,4.4l3.8,0.5l-0.9,22.3L76.9,247.4z M105.9,323.5v15.1
					H89.4l1-22.8l17.1,2C106.5,319.5,105.9,321.4,105.9,323.5z M110.3,338.6v-15.1c0-3.4,2.8-6.1,6.1-6.1h2.3c3.4,0,6.1,2.8,6.1,6.1
					v6.8h2.2c4.6,0,8.4,3.7,8.6,8.3H110.3z M140,338.6c-0.1-3.5-1.5-6.6-3.8-8.9v-11.6l19.9-2.3l0.9,22.8H140z M156.9,226.5l4-0.5
					l-0.5-4.4l-3.7,0.4l-1-25.2l10.8-1.5l3,50.7l-11.8,1.5L156.9,226.5z M158.8,274.2l4.5-0.5l-0.5-4.4l-4.1,0.5l-0.8-17.9l11.9-1.5
					l2.1,35.2l-12.5,1.4L158.8,274.2z M161.4,338.2l-0.9-22.9l4.7-0.5l-0.5-4.4l-4.3,0.5l-0.8-19.4l12.6-1.4l2.9,48.1H161.4z
					 M242.9,338.6h-63.4l-2.9-49l5.9-0.6l-0.5-4.4l-5.7,0.6l-2.1-35.3l6.2-0.8l-0.6-4.4l-5.9,0.7l-3-50.8l6.4-0.9l-0.6-4.4l-6.1,0.9
					l-2.5-42.4l5.5-0.7l-0.5-4.4l-5.3,0.6l-2.2-37.4l5.1-0.8L170,101l-4.7,0.7l-2-34.3l5.3-0.8l-0.7-4.4l-4.9,0.8l-1.1-18.7l-12,2.7
					L149.4,36l-5.6,1.4v-6c0-6.4-5.2-11.5-11.5-11.5h-7v-6c19.2,0.4,34.4,5.4,34.6,5.5l0,0c49.6,15.4,83,60.4,83,112.1V338.6z"/>
			</g>
		</g>
	</g>
	<path id="XMLID_2252_" class="st0" d="M47.1,190.8l0-0.7c0-1.1-0.2-2.1-0.5-3.1c-1.3-3.5-4.7-6.1-8.7-6.1c-4.5,0-8.3,3.2-9.1,7.5v0
		c-2.7,0-10.5,2.6-10.5,13.1v4.9h39.9v-2.9C58.1,196.5,54.1,190.8,47.1,190.8z M22.9,202.1v-0.5c0-5.1,2.4-8.9,6.8-8.9h3.4v-2.5
		c0-1.1,0.4-2.1,1-2.8c0.9-1.2,2.4-1.9,3.8-1.9c2.3,0,4.7,1.8,4.7,4.7v0.5l0,0v4.4l4.4,0c4.9,0,6.5,3.8,6.5,6.9H22.9z"/>
	<g id="XMLID_2248_">
		<path id="XMLID_2249_" class="st0" d="M211.5,162.6L211.5,162.6c0-0.9-0.2-1.8-0.5-2.6c-1.1-3-3.9-5-7.1-5c-3.5,0-6.6,2.4-7.4,5.8
			c-2.3,0.2-8.2,2.3-8.2,10.5v4.3h31.6v-2.8C219.9,167,216.5,162.9,211.5,162.6z M197.6,165h3.1v-2.5c0-0.7,0.2-1.3,0.6-1.9
			c0.6-0.8,1.6-1.2,2.5-1.2c1.5,0,3.1,1.2,3.1,3l0,0v4.4l3.9,0c3.1,0,4.3,2.1,4.5,4.3h-22.5C192.9,167.4,194.8,165,197.6,165z"/>
	</g>
	<path id="XMLID_2247_" class="st0" d="M43.5,157.6l-1.9,2.4c-1.2-1-3.3-1-4.5,0.5l-4.8,6.1l-1.9,2.4l-2.4-1.9l-6.1-4.8
		c-1.6-1.2-3.5-0.7-4.5,0.5l-2.4-1.9c2.1-2.7,6.1-3.2,8.8-1.1l6.1,4.8l4.8-6.1C36.8,156,40.8,155.5,43.5,157.6z"/>
	<path id="XMLID_2246_" class="st0" d="M216.8,128.2l-1.9,2.4c-1.2-1-3.3-1-4.5,0.5l-4.8,6.1l-1.9,2.4l-2.4-1.9l-6.1-4.8
		c-1.6-1.2-3.5-0.7-4.5,0.5l-2.4-1.9c2.1-2.7,6.1-3.2,8.8-1.1l6.1,4.8l4.8-6.1C210.1,126.5,214,126.1,216.8,128.2z"/>
	<g id="XMLID_2244_">
		<path id="XMLID_2245_" class="st0" d="M231.8,143.1l-1.8,2.3l-0.4-0.3c-0.3-0.3-0.8-0.4-1.2-0.3c-0.3,0-0.7,0.2-1,0.6l-4.5,5.8
			l-5.8-4.5c-0.8-0.6-1.7-0.3-2.2,0.3l-0.3,0.4l-2.3-1.8l0.3-0.4c1.5-1.9,4.3-2.3,6.3-0.8l3.5,2.7l2.7-3.5c1.5-1.9,4.3-2.3,6.3-0.7
			L231.8,143.1z"/>
	</g>
</g>
</svg>
